<svg width="2790" height="1476" viewBox="0 0 2790 1476" fill="none" xmlns="http://www.w3.org/2000/svg">
<g filter="url(#filter0_d_146_267)">
<path d="M592.929 169.3C592.929 171.633 591.063 173.033 587.329 173.5C584.063 173.967 571.696 174.667 550.229 175.6C537.629 176.067 530.396 178.633 528.529 183.3C526.663 186.1 525.963 201.033 526.429 228.1L527.129 309.3C527.596 363.433 527.829 434.133 527.829 521.4V640.4C527.829 648.333 526.196 652.3 522.929 652.3C517.796 652.3 483.729 613.8 420.729 536.8C358.196 459.333 289.363 370.9 214.229 271.5V323.3C214.229 341.033 214.463 356.433 214.929 369.5C214.929 382.567 214.929 390.5 214.929 393.3V611C214.929 620.8 217.963 626.867 224.029 629.2C233.829 632.933 245.263 634.8 258.329 634.8C273.729 634.8 282.363 635.967 284.229 638.3C284.696 638.767 284.929 639.7 284.929 641.1C284.929 644.833 281.429 646.7 274.429 646.7C270.229 646.7 266.729 646.467 263.929 646C235.929 645.067 218.429 644.6 211.429 644.6C195.096 644.6 173.629 645.067 147.029 646C133.963 646.467 128.363 646.7 130.229 646.7C123.229 646.7 119.729 644.833 119.729 641.1C119.729 637.833 129.996 635.5 150.529 634.1C174.329 632.233 188.096 628.5 191.829 622.9C194.163 619.167 195.329 602.367 195.329 572.5V284.8C195.329 255.4 194.863 237.667 193.929 231.6C191.129 211.067 182.963 196.133 169.429 186.8C159.163 179.8 140.029 175.833 112.029 174.9C104.563 174.433 100.829 172.333 100.829 168.6C100.829 164.4 104.096 162.3 110.629 162.3C113.429 162.3 123.463 162.767 140.729 163.7C149.129 164.167 161.729 164.4 178.529 164.4C213.063 164.4 241.063 163.933 262.529 163L508.229 478.7V201.5C508.229 190.3 506.363 183.3 502.629 180.5C498.896 177.233 490.963 175.367 478.829 174.9L448.729 173.5C443.129 173.033 440.329 171.4 440.329 168.6C440.329 164.867 444.529 163 452.929 163H468.329C471.129 163 475.796 162.767 482.329 162.3C488.396 162.3 493.763 162.3 498.429 162.3C545.563 162.3 573.096 162.533 581.029 163C588.963 163.467 592.929 165.567 592.929 169.3ZM1029.84 168.6C1029.84 172.333 1021.91 174.433 1006.04 174.9C986.439 175.367 974.539 178.633 970.339 184.7C968.939 186.567 968.005 190.533 967.539 196.6V492.7C967.539 602.833 914.805 657.9 809.339 657.9C755.205 657.9 713.205 641.333 683.339 608.2C660.939 583.467 649.739 539.6 649.739 476.6V207.8C649.739 192.867 647.405 183.767 642.739 180.5C638.072 177.233 623.372 174.667 598.639 172.8C593.505 172.333 590.939 170.467 590.939 167.2C590.939 163 595.139 160.9 603.539 160.9C603.539 160.9 605.405 160.9 609.139 160.9C613.339 161.367 616.839 161.6 619.639 161.6L663.039 162.3C704.105 162.767 734.439 162.767 754.039 162.3C780.172 161.833 790.439 161.6 784.839 161.6H799.539C807.472 161.6 811.439 163.933 811.439 168.6C811.439 172.8 804.205 174.9 789.739 174.9C769.205 174.9 758.239 178.633 756.839 186.1C755.905 191.233 755.439 196.133 755.439 200.8V462.6C755.439 500.4 756.139 524.433 757.539 534.7C760.805 565.033 769.439 586.967 783.439 600.5C800.705 617.3 823.339 625.7 851.339 625.7C883.072 625.7 906.405 615.433 921.339 594.9C939.539 570.167 948.639 525.833 948.639 461.9V230.9C948.639 226.7 948.872 221.333 949.339 214.8C949.339 208.267 949.339 204.3 949.339 202.9C949.339 190.767 945.839 182.833 938.839 179.1C934.172 176.3 925.072 174.9 911.539 174.9C894.739 174.433 886.339 171.633 886.339 166.5C886.339 162.767 889.605 160.9 896.139 160.9C903.139 160.9 913.405 161.367 926.939 162.3C940.472 162.767 950.739 163 957.739 163C958.205 163 962.172 162.767 969.639 162.3C977.572 162.3 984.805 162.3 991.339 162.3H1008.14C1022.61 162.3 1029.84 164.4 1029.84 168.6ZM1439.36 291.8C1439.36 295.533 1437.72 297.4 1434.46 297.4C1429.32 297.4 1424.66 288.3 1420.46 270.1C1412.06 234.167 1400.39 209.667 1385.46 196.6C1370.52 183.533 1346.72 177 1314.06 177C1301.46 177 1290.49 177.467 1281.16 178.4L1281.86 604C1282.32 615.667 1285.59 623.133 1291.66 626.4C1297.72 629.667 1314.06 632.467 1340.66 634.8C1345.79 635.267 1348.36 637.367 1348.36 641.1C1348.36 645.767 1344.62 648.1 1337.16 648.1C1335.76 648.1 1332.26 647.867 1326.66 647.4C1319.66 646.933 1313.82 646.7 1309.16 646.7L1237.06 644.6L1118.06 646.7C1111.52 646.7 1108.26 644.833 1108.26 641.1C1108.26 638.3 1109.19 636.667 1111.06 636.2C1112.92 635.733 1120.62 635.267 1134.16 634.8C1159.82 633.867 1173.59 627.8 1175.46 616.6C1176.39 610.533 1176.86 563.167 1176.86 474.5V178.4C1171.72 177.933 1165.66 177.7 1158.66 177.7C1121.32 177.7 1094.02 184.7 1076.76 198.7C1059.96 212.233 1048.99 236.5 1043.86 271.5C1040.59 292.033 1036.39 302.3 1031.26 302.3C1027.06 302.3 1024.96 299.5 1024.96 293.9C1024.96 290.167 1025.89 277.333 1027.76 255.4C1031.49 209.667 1033.82 178.4 1034.76 161.6H1045.26L1096.36 160.9C1097.76 160.9 1113.86 161.367 1144.66 162.3C1175.92 163.233 1215.59 163.7 1263.66 163.7C1290.26 163.7 1314.06 163.467 1335.06 163C1356.06 162.533 1375.19 162.3 1392.46 162.3C1407.86 162.3 1419.52 161.833 1427.46 160.9C1428.86 191.233 1432.36 229.967 1437.96 277.1C1438.89 285.033 1439.36 289.933 1439.36 291.8ZM1887.31 618.7C1887.31 644.833 1870.28 657.9 1836.21 657.9C1793.28 657.9 1758.98 644.367 1733.31 617.3C1713.24 596.3 1701.81 573.9 1699.01 550.1L1692.01 492.7C1687.34 456.3 1678.71 430.867 1666.11 416.4C1653.98 401.933 1634.14 394.933 1606.61 395.4V554.3C1606.61 591.167 1606.84 611 1607.31 613.8C1607.31 621.733 1610.58 627.333 1617.11 630.6C1623.64 633.4 1636.01 634.8 1654.21 634.8C1665.41 634.8 1671.01 636.9 1671.01 641.1C1671.01 644.833 1668.21 646.7 1662.61 646.7L1594.71 646C1594.71 646 1590.98 646 1583.51 646C1575.11 646.467 1567.18 646.7 1559.71 646.7H1509.31C1504.64 646.7 1499.28 646.467 1493.21 646C1488.08 646 1484.81 646 1483.41 646L1451.21 646.7C1444.68 646.7 1441.41 644.833 1441.41 641.1C1441.41 636.9 1450.98 634.333 1470.11 633.4C1485.98 632.467 1495.31 628.733 1498.11 622.2C1499.51 618.933 1500.21 609.133 1500.21 592.8V232.3C1500.21 208.033 1499.74 193.8 1498.81 189.6C1497.88 184.933 1494.84 181.433 1489.71 179.1C1483.18 176.3 1472.68 174.9 1458.21 174.9C1447.94 174.9 1442.81 172.8 1442.81 168.6C1442.81 165.333 1444.91 163.467 1449.11 163C1453.31 162.067 1464.51 161.6 1482.71 161.6C1482.71 161.6 1486.91 161.6 1495.31 161.6C1503.71 162.067 1511.88 162.3 1519.81 162.3H1542.91C1543.38 162.3 1548.28 162.067 1557.61 161.6C1566.48 161.6 1574.88 161.6 1582.81 161.6H1623.41C1688.74 161.6 1733.31 166.733 1757.11 177C1775.78 184.933 1790.71 197.067 1801.91 213.4C1813.11 229.733 1818.71 247.7 1818.71 267.3C1818.71 312.1 1795.38 345.233 1748.71 366.7C1728.18 376.033 1697.84 383.033 1657.71 387.7L1657.01 391.9C1707.88 395.167 1744.74 408.7 1767.61 432.5C1790.48 455.833 1804.24 493.867 1808.91 546.6C1812.64 588.6 1818.48 614.967 1826.41 625.7C1834.34 635.967 1842.51 641.1 1850.91 641.1C1857.91 641.1 1861.41 639.233 1861.41 635.5C1861.41 633.633 1858.61 631.067 1853.01 627.8C1847.88 624.533 1845.31 619.867 1845.31 613.8C1845.31 601.2 1852.31 594.9 1866.31 594.9C1880.31 594.9 1887.31 602.833 1887.31 618.7ZM1710.21 265.2C1710.21 205 1686.41 174.9 1638.81 174.9C1623.41 174.9 1613.84 180.033 1610.11 190.3C1607.78 196.833 1606.61 222.267 1606.61 266.6V382.8C1643.01 383.267 1669.38 374.167 1685.71 355.5C1702.04 336.833 1710.21 306.733 1710.21 265.2ZM2109.01 641.1C2109.01 644.833 2105.98 646.7 2099.91 646.7C2096.65 646.7 2093.61 646.467 2090.81 646C2062.81 644.6 2038.78 643.9 2018.71 643.9C1997.71 643.9 1966.91 644.6 1926.31 646C1912.78 646.467 1902.75 646.7 1896.21 646.7C1889.21 646.7 1885.71 644.6 1885.71 640.4C1885.71 638.067 1886.88 636.667 1889.21 636.2C1892.01 635.733 1901.11 635.267 1916.51 634.8C1930.98 632 1939.38 627.8 1941.71 622.2C1944.05 616.133 1945.21 597.233 1945.21 565.5V228.8C1945.21 219.933 1945.21 211.3 1945.21 202.9C1944.75 194.5 1944.51 190.533 1944.51 191C1944.51 179.333 1932.85 173.5 1909.51 173.5C1896.45 173.5 1889.91 171.867 1889.91 168.6C1889.91 165.333 1890.85 163.467 1892.71 163C1894.58 162.533 1900.65 162.3 1910.91 162.3C1906.25 162.3 1914.65 162.533 1936.11 163C1957.58 163.467 1976.01 163.7 1991.41 163.7H2027.11C2034.58 163.7 2045.08 163.467 2058.61 163C2072.61 162.067 2082.41 161.6 2088.01 161.6H2095.01C2101.08 161.6 2104.11 163.467 2104.11 167.2C2104.11 170 2102.95 171.867 2100.61 172.8C2098.75 173.267 2091.75 173.733 2079.61 174.2C2065.15 175.133 2056.28 178.167 2053.01 183.3L2050.91 196.6V592.1C2050.91 612.167 2053.01 624.067 2057.21 627.8C2061.88 631.533 2077.05 634.1 2102.71 635.5C2106.91 635.967 2109.01 637.833 2109.01 641.1Z" fill="white"/>
<path d="M1237.04 1112.5C1237.04 1113.43 1236.8 1135.13 1236.34 1177.6C1235.87 1200 1235.4 1216.1 1234.94 1225.9C1234.94 1235.7 1234.94 1240.37 1234.94 1239.9C1111.74 1234.3 1003.94 1232.67 911.538 1235L852.738 1236.4C844.338 1236.4 840.138 1234.53 840.138 1230.8C840.138 1228 841.071 1226.37 842.938 1225.9C845.271 1225.43 852.505 1224.73 864.638 1223.8C886.571 1222.4 898.471 1216.1 900.338 1204.9C901.271 1198.83 901.738 1192.07 901.738 1184.6V829.7C901.738 801.7 901.505 786.3 901.038 783.5C900.571 776.033 898.238 770.9 894.038 768.1C889.838 765.3 881.205 763.9 868.138 763.9C853.671 763.9 846.438 761.8 846.438 757.6C846.438 752.933 852.738 750.6 865.338 750.6C878.405 750.6 896.371 750.367 919.238 749.9C1005.1 748.033 1075.34 747.567 1129.94 748.5L1177.54 749.2C1187.8 749.2 1200.4 748.267 1215.34 746.4L1221.64 822.7C1223.97 846.967 1225.14 861.9 1225.14 867.5C1225.14 872.167 1222.8 874.5 1218.14 874.5C1213.47 874.5 1210.44 868.433 1209.04 856.3C1204.84 824.1 1191.77 800.767 1169.84 786.3C1148.37 771.367 1116.4 763.9 1073.94 763.9C1060.87 763.9 1038.47 764.6 1006.74 766V972.5C1058.07 972.967 1090.27 969.467 1103.34 962C1116.87 954.067 1125.97 934 1130.64 901.8C1132.97 884.533 1136.47 875.9 1141.14 875.9C1145.34 875.9 1147.44 880.1 1147.44 888.5C1147.44 896.9 1146.74 914.167 1145.34 940.3C1144.87 949.167 1144.64 961.067 1144.64 976C1144.64 1016.13 1145.1 1046.47 1146.04 1067C1146.5 1069.8 1146.74 1073.3 1146.74 1077.5C1146.74 1083.1 1144.64 1085.9 1140.44 1085.9C1137.17 1085.9 1135.07 1084.97 1134.14 1083.1C1133.2 1080.77 1131.8 1073.07 1129.94 1060C1125.27 1026.87 1118.74 1006.33 1110.34 998.4C1102.4 990 1083.74 985.8 1054.34 985.8H1006.74V1221.7L1051.54 1221C1102.87 1220.07 1134.14 1218.9 1145.34 1217.5C1159.34 1215.63 1172.87 1210.5 1185.94 1202.1C1197.6 1192.77 1205.54 1182.73 1209.74 1172C1214.4 1161.27 1219.3 1141.43 1224.44 1112.5C1225.84 1105.5 1228.17 1102 1231.44 1102C1235.17 1102 1237.04 1105.5 1237.04 1112.5ZM1908.15 756.9C1908.15 760.633 1904.65 762.733 1897.65 763.2C1876.65 764.133 1863.35 766.7 1857.75 770.9C1852.15 774.633 1845.85 786.3 1838.85 805.9C1834.65 816.633 1828.35 832.967 1819.95 854.9C1813.88 873.1 1804.31 901.1 1791.25 938.9C1784.71 956.633 1774.91 983.467 1761.85 1019.4L1727.55 1115.3C1703.28 1182.97 1689.75 1221.93 1686.95 1232.2C1685.08 1238.27 1682.98 1241.3 1680.65 1241.3C1677.85 1241.3 1675.51 1239.2 1673.65 1235C1671.78 1230.33 1666.41 1214.23 1657.55 1186.7C1645.88 1150.3 1628.85 1105.03 1606.45 1050.9L1582.65 993.5C1535.98 1093.37 1502.38 1172.7 1481.85 1231.5C1479.51 1237.57 1476.95 1240.6 1474.15 1240.6C1472.28 1240.6 1466.45 1228.23 1456.65 1203.5L1371.25 980.9C1350.71 924.9 1324.35 858.167 1292.15 780.7C1288.88 772.3 1283.51 767.167 1276.05 765.3C1271.85 763.9 1263.68 763.2 1251.55 763.2C1239.41 763.2 1233.35 761.1 1233.35 756.9C1233.35 753.167 1236.61 751.3 1243.15 751.3C1242.68 751.3 1250.38 751.3 1266.25 751.3C1282.58 751.767 1296.58 752 1308.25 752H1334.85L1405.55 750.6C1407.88 750.6 1411.85 750.367 1417.45 749.9C1422.11 749.9 1425.38 749.9 1427.25 749.9C1433.31 749.9 1436.35 752.233 1436.35 756.9C1436.35 761.1 1428.88 762.967 1413.95 762.5C1406.01 762.5 1402.05 764.6 1402.05 768.8C1402.05 770.667 1402.51 772.767 1403.45 775.1C1413.71 803.567 1429.35 846.033 1450.35 902.5L1522.45 1088.7L1571.45 976.7C1564.45 956.167 1550.91 919.3 1530.85 866.1C1527.11 857.7 1521.98 844.867 1515.45 827.6C1514.05 823.4 1511.71 816.867 1508.45 808C1500.51 786.533 1493.98 773.7 1488.85 769.5C1483.71 764.833 1472.98 762.5 1456.65 762.5C1451.98 762.033 1449.65 759.933 1449.65 756.2C1449.65 752 1454.08 749.9 1462.95 749.9C1461.55 749.9 1463.88 750.133 1469.95 750.6C1476.48 751.067 1486.98 751.3 1501.45 751.3L1745.75 750.6C1754.61 750.133 1759.05 752.233 1759.05 756.9C1759.05 760.633 1755.55 762.5 1748.55 762.5C1715.41 762.033 1696.28 767.633 1691.15 779.3C1683.21 791.9 1666.65 827.6 1641.45 886.4C1657.78 928.4 1683.91 994.9 1719.85 1085.9C1727.31 1066.77 1735.25 1045.53 1743.65 1022.2C1751.11 1002.6 1763.25 969.233 1780.05 922.1C1790.78 890.833 1799.88 865.4 1807.35 845.8C1819.95 812.667 1826.25 791.2 1826.25 781.4C1826.25 772.067 1821.58 766.233 1812.25 763.9C1808.98 762.967 1800.58 762.5 1787.05 762.5C1779.58 762.5 1775.85 760.633 1775.85 756.9C1775.85 753.167 1779.35 751.3 1786.35 751.3L1841.65 752.7C1865.45 753.167 1883.41 752.7 1895.55 751.3H1901.15C1905.81 751.3 1908.15 753.167 1908.15 756.9ZM1668.05 781.4C1668.05 768.8 1656.85 762.5 1634.45 762.5C1611.58 762.5 1600.15 766.7 1600.15 775.1C1600.15 786.767 1611.35 816.633 1633.75 864.7C1656.61 817.1 1668.05 789.333 1668.05 781.4ZM2282.94 1112.5C2282.94 1113.43 2282.7 1135.13 2282.24 1177.6C2281.77 1200 2281.3 1216.1 2280.84 1225.9C2280.84 1235.7 2280.84 1240.37 2280.84 1239.9C2157.64 1234.3 2049.84 1232.67 1957.44 1235L1898.64 1236.4C1890.24 1236.4 1886.04 1234.53 1886.04 1230.8C1886.04 1228 1886.97 1226.37 1888.84 1225.9C1891.17 1225.43 1898.4 1224.73 1910.54 1223.8C1932.47 1222.4 1944.37 1216.1 1946.24 1204.9C1947.17 1198.83 1947.64 1192.07 1947.64 1184.6V829.7C1947.64 801.7 1947.4 786.3 1946.94 783.5C1946.47 776.033 1944.14 770.9 1939.94 768.1C1935.74 765.3 1927.1 763.9 1914.04 763.9C1899.57 763.9 1892.34 761.8 1892.34 757.6C1892.34 752.933 1898.64 750.6 1911.24 750.6C1924.3 750.6 1942.27 750.367 1965.14 749.9C2051 748.033 2121.24 747.567 2175.84 748.5L2223.44 749.2C2233.7 749.2 2246.3 748.267 2261.24 746.4L2267.54 822.7C2269.87 846.967 2271.04 861.9 2271.04 867.5C2271.04 872.167 2268.7 874.5 2264.04 874.5C2259.37 874.5 2256.34 868.433 2254.94 856.3C2250.74 824.1 2237.67 800.767 2215.74 786.3C2194.27 771.367 2162.3 763.9 2119.84 763.9C2106.77 763.9 2084.37 764.6 2052.64 766V972.5C2103.97 972.967 2136.17 969.467 2149.24 962C2162.77 954.067 2171.87 934 2176.54 901.8C2178.87 884.533 2182.37 875.9 2187.04 875.9C2191.24 875.9 2193.34 880.1 2193.34 888.5C2193.34 896.9 2192.64 914.167 2191.24 940.3C2190.77 949.167 2190.54 961.067 2190.54 976C2190.54 1016.13 2191 1046.47 2191.94 1067C2192.4 1069.8 2192.64 1073.3 2192.64 1077.5C2192.64 1083.1 2190.54 1085.9 2186.34 1085.9C2183.07 1085.9 2180.97 1084.97 2180.04 1083.1C2179.1 1080.77 2177.7 1073.07 2175.84 1060C2171.17 1026.87 2164.64 1006.33 2156.24 998.4C2148.3 990 2129.64 985.8 2100.24 985.8H2052.64V1221.7L2097.44 1221C2148.77 1220.07 2180.04 1218.9 2191.24 1217.5C2205.24 1215.63 2218.77 1210.5 2231.84 1202.1C2243.5 1192.77 2251.44 1182.73 2255.64 1172C2260.3 1161.27 2265.2 1141.43 2270.34 1112.5C2271.74 1105.5 2274.07 1102 2277.34 1102C2281.07 1102 2282.94 1105.5 2282.94 1112.5ZM2689.44 1116.7C2689.44 1125.57 2689.21 1133.03 2688.74 1139.1C2686.88 1159.63 2686.18 1176.2 2686.64 1188.8L2687.34 1238.5C2627.61 1236.17 2519.58 1235 2363.24 1235H2333.84C2313.31 1235 2303.04 1233.13 2303.04 1229.4C2303.04 1225.67 2306.31 1223.8 2312.84 1223.8C2336.18 1223.33 2351.11 1220.07 2357.64 1214C2361.84 1210.27 2363.94 1199.07 2363.94 1180.4L2363.24 801C2363.24 785.133 2361.84 775.333 2359.04 771.6C2353.44 764.6 2344.81 761.333 2333.14 761.8L2315.64 762.5C2310.51 762.5 2307.94 760.633 2307.94 756.9C2307.94 753.167 2311.21 751.3 2317.74 751.3C2321.48 751.3 2325.21 751.533 2328.94 752H2506.74C2509.08 751.533 2511.64 751.3 2514.44 751.3C2519.11 751.3 2521.44 753.167 2521.44 756.9C2521.44 761.1 2515.38 763.2 2503.24 763.2C2485.98 763.2 2475.71 765.3 2472.44 769.5C2469.64 773.7 2468.24 792.133 2468.24 824.8V991.4C2468.24 1025.47 2469.18 1101.77 2471.04 1220.3C2479.91 1220.77 2489.94 1221 2501.14 1221C2550.14 1221 2583.98 1219.13 2602.64 1215.4C2632.04 1209.33 2652.11 1194.4 2662.84 1170.6C2668.44 1158.47 2673.58 1139.1 2678.24 1112.5C2679.64 1105.03 2681.74 1101.3 2684.54 1101.3C2687.81 1101.3 2689.44 1106.43 2689.44 1116.7Z" fill="white"/>
<path d="M575.91 1361.6C595.51 1359.73 611.61 1353.9 624.21 1344.1C637.276 1334.77 647.076 1318.9 653.61 1296.5C660.61 1274.57 664.11 1244.47 664.11 1206.2V822.6C664.11 804.867 662.71 792.033 659.91 784.1C657.576 776.167 652.676 770.8 645.21 768C638.21 765.2 627.01 763.333 611.61 762.4V748.4C634.943 749.8 670.176 750.5 717.31 750.5C765.376 750.5 802.243 749.8 827.91 748.4V762.4C812.043 763.333 800.61 765.2 793.61 768C786.61 770.8 781.71 776.167 778.91 784.1C776.576 792.033 775.41 804.867 775.41 822.6V1078.8V1121.5C775.41 1187.3 771.443 1233.97 763.51 1261.5C753.71 1295.57 732.71 1323.1 700.51 1344.1C668.776 1365.1 627.243 1375.6 575.91 1375.6V1361.6Z" fill="white"/>
</g>
<defs>
<filter id="filter0_d_146_267" x="0.830078" y="60.9004" width="2788.62" height="1414.7" filterUnits="userSpaceOnUse" color-interpolation-filters="sRGB">
<feFlood flood-opacity="0" result="BackgroundImageFix"/>
<feColorMatrix in="SourceAlpha" type="matrix" values="0 0 0 0 0 0 0 0 0 0 0 0 0 0 0 0 0 0 127 0" result="hardAlpha"/>
<feOffset/>
<feGaussianBlur stdDeviation="50"/>
<feComposite in2="hardAlpha" operator="out"/>
<feColorMatrix type="matrix" values="0 0 0 0 0 0 0 0 0 0 0 0 0 0 0.00392157 0 0 0 0.21 0"/>
<feBlend mode="normal" in2="BackgroundImageFix" result="effect1_dropShadow_146_267"/>
<feBlend mode="normal" in="SourceGraphic" in2="effect1_dropShadow_146_267" result="shape"/>
</filter>
</defs>
</svg>
