<svg width="4849" height="4849" viewBox="0 0 4849 4849" fill="none" xmlns="http://www.w3.org/2000/svg">
<path d="M2238.07 147.881C2347.26 61.264 2501.74 61.2641 2610.93 147.881L2963.33 427.406C3019.78 472.181 3090.45 495.145 3162.44 492.101L3611.83 473.094C3751.09 467.204 3876.06 558 3913.49 692.26L4034.28 1125.53C4053.63 1194.94 4097.31 1255.06 4157.34 1294.91L4532.08 1543.68C4648.2 1620.76 4695.94 1767.68 4647.3 1898.3L4490.36 2319.82C4465.22 2387.34 4465.22 2461.66 4490.36 2529.18L4647.3 2950.7C4695.94 3081.32 4648.2 3228.24 4532.08 3305.32L4157.34 3554.09C4097.31 3593.94 4053.63 3654.06 4034.28 3723.47L3913.49 4156.74C3876.06 4291 3751.09 4381.8 3611.83 4375.91L3162.44 4356.9C3090.45 4353.86 3019.78 4376.82 2963.33 4421.59L2610.93 4701.12C2501.74 4787.74 2347.26 4787.74 2238.07 4701.12L1885.67 4421.59C1829.22 4376.82 1758.55 4353.86 1686.56 4356.9L1237.17 4375.91C1097.91 4381.8 972.94 4291 935.509 4156.74L814.715 3723.47C795.366 3654.06 751.685 3593.94 691.658 3554.09L316.918 3305.32C200.796 3228.24 153.062 3081.32 201.696 2950.7L358.643 2529.18C383.783 2461.66 383.783 2387.34 358.643 2319.82L201.696 1898.3C153.062 1767.68 200.796 1620.76 316.918 1543.68L691.658 1294.91C751.685 1255.06 795.366 1194.94 814.715 1125.53L935.509 692.26C972.94 558 1097.91 467.204 1237.17 473.094L1686.56 492.101C1758.55 495.145 1829.22 472.181 1885.67 427.406L2238.07 147.881Z" fill="#93B559"/>
<path d="M2605.34 337.933L2910.46 579.957C2968.6 626.075 3041.4 649.729 3115.54 646.593L3504.65 630.136C3639.73 624.423 3760.95 712.495 3797.26 842.727L3901.85 1217.87C3921.78 1289.36 3966.77 1351.28 4028.59 1392.33L4353.06 1607.73C4465.7 1682.5 4512 1825 4464.83 1951.71L4328.93 2316.68C4303.04 2386.23 4303.04 2462.77 4328.93 2532.32L4464.83 2897.29C4512 3024 4465.7 3166.5 4353.06 3241.27L4028.59 3456.67C3966.77 3497.72 3921.78 3559.64 3901.85 3631.13L3797.26 4006.27C3760.95 4136.51 3639.73 4224.58 3504.65 4218.86L3115.54 4202.41C3041.4 4199.27 2968.6 4222.92 2910.46 4269.04L2605.34 4511.07C2499.42 4595.09 2349.58 4595.09 2243.66 4511.07L1938.54 4269.04C1880.4 4222.92 1807.6 4199.27 1733.46 4202.41L1344.35 4218.86C1209.27 4224.58 1088.05 4136.51 1051.74 4006.27L947.154 3631.13C927.225 3559.64 882.233 3497.72 820.405 3456.67L495.939 3241.27C383.301 3166.5 336.999 3024 384.174 2897.29L520.065 2532.32C545.96 2462.77 545.96 2386.23 520.065 2316.68L384.174 1951.71C336.999 1825 383.301 1682.5 495.939 1607.73L820.405 1392.33C882.233 1351.28 927.225 1289.36 947.154 1217.87L1051.74 842.727C1088.05 712.495 1209.27 624.423 1344.35 630.136L1733.46 646.593C1807.6 649.729 1880.4 626.075 1938.54 579.957L2243.66 337.933C2349.58 253.914 2499.42 253.914 2605.34 337.933Z" stroke="white" stroke-width="18" stroke-miterlimit="2.3662"/>
<g filter="url(#filter0_d_146_161)">
<path d="M1606.93 1880.3C1606.93 1882.63 1605.06 1884.03 1601.33 1884.5C1598.06 1884.97 1585.7 1885.67 1564.23 1886.6C1551.63 1887.07 1544.4 1889.63 1542.53 1894.3C1540.66 1897.1 1539.96 1912.03 1540.43 1939.1L1541.13 2020.3C1541.6 2074.43 1541.83 2145.13 1541.83 2232.4V2351.4C1541.83 2359.33 1540.2 2363.3 1536.93 2363.3C1531.8 2363.3 1497.73 2324.8 1434.73 2247.8C1372.2 2170.33 1303.36 2081.9 1228.23 1982.5V2034.3C1228.23 2052.03 1228.46 2067.43 1228.93 2080.5C1228.93 2093.57 1228.93 2101.5 1228.93 2104.3V2322C1228.93 2331.8 1231.96 2337.87 1238.03 2340.2C1247.83 2343.93 1259.26 2345.8 1272.33 2345.8C1287.73 2345.8 1296.36 2346.97 1298.23 2349.3C1298.7 2349.77 1298.93 2350.7 1298.93 2352.1C1298.93 2355.83 1295.43 2357.7 1288.43 2357.7C1284.23 2357.7 1280.73 2357.47 1277.93 2357C1249.93 2356.07 1232.43 2355.6 1225.43 2355.6C1209.1 2355.6 1187.63 2356.07 1161.03 2357C1147.96 2357.47 1142.36 2357.7 1144.23 2357.7C1137.23 2357.7 1133.73 2355.83 1133.73 2352.1C1133.73 2348.83 1144 2346.5 1164.53 2345.1C1188.33 2343.23 1202.1 2339.5 1205.83 2333.9C1208.16 2330.17 1209.33 2313.37 1209.33 2283.5V1995.8C1209.33 1966.4 1208.86 1948.67 1207.93 1942.6C1205.13 1922.07 1196.96 1907.13 1183.43 1897.8C1173.16 1890.8 1154.03 1886.83 1126.03 1885.9C1118.56 1885.43 1114.83 1883.33 1114.83 1879.6C1114.83 1875.4 1118.1 1873.3 1124.63 1873.3C1127.43 1873.3 1137.46 1873.77 1154.73 1874.7C1163.13 1875.17 1175.73 1875.4 1192.53 1875.4C1227.06 1875.4 1255.06 1874.93 1276.53 1874L1522.23 2189.7V1912.5C1522.23 1901.3 1520.36 1894.3 1516.63 1891.5C1512.9 1888.23 1504.96 1886.37 1492.83 1885.9L1462.73 1884.5C1457.13 1884.03 1454.33 1882.4 1454.33 1879.6C1454.33 1875.87 1458.53 1874 1466.93 1874H1482.33C1485.13 1874 1489.8 1873.77 1496.33 1873.3C1502.4 1873.3 1507.76 1873.3 1512.43 1873.3C1559.56 1873.3 1587.1 1873.53 1595.03 1874C1602.96 1874.47 1606.93 1876.57 1606.93 1880.3ZM2043.84 1879.6C2043.84 1883.33 2035.91 1885.43 2020.04 1885.9C2000.44 1886.37 1988.54 1889.63 1984.34 1895.7C1982.94 1897.57 1982.01 1901.53 1981.54 1907.6V2203.7C1981.54 2313.83 1928.81 2368.9 1823.34 2368.9C1769.21 2368.9 1727.21 2352.33 1697.34 2319.2C1674.94 2294.47 1663.74 2250.6 1663.74 2187.6V1918.8C1663.74 1903.87 1661.41 1894.77 1656.74 1891.5C1652.07 1888.23 1637.37 1885.67 1612.64 1883.8C1607.51 1883.33 1604.94 1881.47 1604.94 1878.2C1604.94 1874 1609.14 1871.9 1617.54 1871.9C1617.54 1871.9 1619.41 1871.9 1623.14 1871.9C1627.34 1872.37 1630.84 1872.6 1633.64 1872.6L1677.04 1873.3C1718.11 1873.77 1748.44 1873.77 1768.04 1873.3C1794.17 1872.83 1804.44 1872.6 1798.84 1872.6H1813.54C1821.47 1872.6 1825.44 1874.93 1825.44 1879.6C1825.44 1883.8 1818.21 1885.9 1803.74 1885.9C1783.21 1885.9 1772.24 1889.63 1770.84 1897.1C1769.91 1902.23 1769.44 1907.13 1769.44 1911.8V2173.6C1769.44 2211.4 1770.14 2235.43 1771.54 2245.7C1774.81 2276.03 1783.44 2297.97 1797.44 2311.5C1814.71 2328.3 1837.34 2336.7 1865.34 2336.7C1897.07 2336.7 1920.41 2326.43 1935.34 2305.9C1953.54 2281.17 1962.64 2236.83 1962.64 2172.9V1941.9C1962.64 1937.7 1962.87 1932.33 1963.34 1925.8C1963.34 1919.27 1963.34 1915.3 1963.34 1913.9C1963.34 1901.77 1959.84 1893.83 1952.84 1890.1C1948.17 1887.3 1939.07 1885.9 1925.54 1885.9C1908.74 1885.43 1900.34 1882.63 1900.34 1877.5C1900.34 1873.77 1903.61 1871.9 1910.14 1871.9C1917.14 1871.9 1927.41 1872.37 1940.94 1873.3C1954.47 1873.77 1964.74 1874 1971.74 1874C1972.21 1874 1976.17 1873.77 1983.64 1873.3C1991.57 1873.3 1998.81 1873.3 2005.34 1873.3H2022.14C2036.61 1873.3 2043.84 1875.4 2043.84 1879.6ZM2453.36 2002.8C2453.36 2006.53 2451.72 2008.4 2448.46 2008.4C2443.32 2008.4 2438.66 1999.3 2434.46 1981.1C2426.06 1945.17 2414.39 1920.67 2399.46 1907.6C2384.52 1894.53 2360.72 1888 2328.06 1888C2315.46 1888 2304.49 1888.47 2295.16 1889.4L2295.86 2315C2296.32 2326.67 2299.59 2334.13 2305.66 2337.4C2311.72 2340.67 2328.06 2343.47 2354.66 2345.8C2359.79 2346.27 2362.36 2348.37 2362.36 2352.1C2362.36 2356.77 2358.62 2359.1 2351.16 2359.1C2349.76 2359.1 2346.26 2358.87 2340.66 2358.4C2333.66 2357.93 2327.82 2357.7 2323.16 2357.7L2251.06 2355.6L2132.06 2357.7C2125.52 2357.7 2122.26 2355.83 2122.26 2352.1C2122.26 2349.3 2123.19 2347.67 2125.06 2347.2C2126.92 2346.73 2134.62 2346.27 2148.16 2345.8C2173.82 2344.87 2187.59 2338.8 2189.46 2327.6C2190.39 2321.53 2190.86 2274.17 2190.86 2185.5V1889.4C2185.72 1888.93 2179.66 1888.7 2172.66 1888.7C2135.32 1888.7 2108.02 1895.7 2090.76 1909.7C2073.96 1923.23 2062.99 1947.5 2057.86 1982.5C2054.59 2003.03 2050.39 2013.3 2045.26 2013.3C2041.06 2013.3 2038.96 2010.5 2038.96 2004.9C2038.96 2001.17 2039.89 1988.33 2041.76 1966.4C2045.49 1920.67 2047.82 1889.4 2048.76 1872.6H2059.26L2110.36 1871.9C2111.76 1871.9 2127.86 1872.37 2158.66 1873.3C2189.92 1874.23 2229.59 1874.7 2277.66 1874.7C2304.26 1874.7 2328.06 1874.47 2349.06 1874C2370.06 1873.53 2389.19 1873.3 2406.46 1873.3C2421.86 1873.3 2433.52 1872.83 2441.46 1871.9C2442.86 1902.23 2446.36 1940.97 2451.96 1988.1C2452.89 1996.03 2453.36 2000.93 2453.36 2002.8ZM2901.31 2329.7C2901.31 2355.83 2884.28 2368.9 2850.21 2368.9C2807.28 2368.9 2772.98 2355.37 2747.31 2328.3C2727.24 2307.3 2715.81 2284.9 2713.01 2261.1L2706.01 2203.7C2701.34 2167.3 2692.71 2141.87 2680.11 2127.4C2667.98 2112.93 2648.14 2105.93 2620.61 2106.4V2265.3C2620.61 2302.17 2620.84 2322 2621.31 2324.8C2621.31 2332.73 2624.58 2338.33 2631.11 2341.6C2637.64 2344.4 2650.01 2345.8 2668.21 2345.8C2679.41 2345.8 2685.01 2347.9 2685.01 2352.1C2685.01 2355.83 2682.21 2357.7 2676.61 2357.7L2608.71 2357C2608.71 2357 2604.98 2357 2597.51 2357C2589.11 2357.47 2581.18 2357.7 2573.71 2357.7H2523.31C2518.64 2357.7 2513.28 2357.47 2507.21 2357C2502.08 2357 2498.81 2357 2497.41 2357L2465.21 2357.7C2458.68 2357.7 2455.41 2355.83 2455.41 2352.1C2455.41 2347.9 2464.98 2345.33 2484.11 2344.4C2499.98 2343.47 2509.31 2339.73 2512.11 2333.2C2513.51 2329.93 2514.21 2320.13 2514.21 2303.8V1943.3C2514.21 1919.03 2513.74 1904.8 2512.81 1900.6C2511.88 1895.93 2508.84 1892.43 2503.71 1890.1C2497.18 1887.3 2486.68 1885.9 2472.21 1885.9C2461.94 1885.9 2456.81 1883.8 2456.81 1879.6C2456.81 1876.33 2458.91 1874.47 2463.11 1874C2467.31 1873.07 2478.51 1872.6 2496.71 1872.6C2496.71 1872.6 2500.91 1872.6 2509.31 1872.6C2517.71 1873.07 2525.88 1873.3 2533.81 1873.3H2556.91C2557.38 1873.3 2562.28 1873.07 2571.61 1872.6C2580.48 1872.6 2588.88 1872.6 2596.81 1872.6H2637.41C2702.74 1872.6 2747.31 1877.73 2771.11 1888C2789.78 1895.93 2804.71 1908.07 2815.91 1924.4C2827.11 1940.73 2832.71 1958.7 2832.71 1978.3C2832.71 2023.1 2809.38 2056.23 2762.71 2077.7C2742.18 2087.03 2711.84 2094.03 2671.71 2098.7L2671.01 2102.9C2721.88 2106.17 2758.74 2119.7 2781.61 2143.5C2804.48 2166.83 2818.24 2204.87 2822.91 2257.6C2826.64 2299.6 2832.48 2325.97 2840.41 2336.7C2848.34 2346.97 2856.51 2352.1 2864.91 2352.1C2871.91 2352.1 2875.41 2350.23 2875.41 2346.5C2875.41 2344.63 2872.61 2342.07 2867.01 2338.8C2861.88 2335.53 2859.31 2330.87 2859.31 2324.8C2859.31 2312.2 2866.31 2305.9 2880.31 2305.9C2894.31 2305.9 2901.31 2313.83 2901.31 2329.7ZM2724.21 1976.2C2724.21 1916 2700.41 1885.9 2652.81 1885.9C2637.41 1885.9 2627.84 1891.03 2624.11 1901.3C2621.78 1907.83 2620.61 1933.27 2620.61 1977.6V2093.8C2657.01 2094.27 2683.38 2085.17 2699.71 2066.5C2716.04 2047.83 2724.21 2017.73 2724.21 1976.2ZM3123.01 2352.1C3123.01 2355.83 3119.98 2357.7 3113.91 2357.7C3110.65 2357.7 3107.61 2357.47 3104.81 2357C3076.81 2355.6 3052.78 2354.9 3032.71 2354.9C3011.71 2354.9 2980.91 2355.6 2940.31 2357C2926.78 2357.47 2916.75 2357.7 2910.21 2357.7C2903.21 2357.7 2899.71 2355.6 2899.71 2351.4C2899.71 2349.07 2900.88 2347.67 2903.21 2347.2C2906.01 2346.73 2915.11 2346.27 2930.51 2345.8C2944.98 2343 2953.38 2338.8 2955.71 2333.2C2958.05 2327.13 2959.21 2308.23 2959.21 2276.5V1939.8C2959.21 1930.93 2959.21 1922.3 2959.21 1913.9C2958.75 1905.5 2958.51 1901.53 2958.51 1902C2958.51 1890.33 2946.85 1884.5 2923.51 1884.5C2910.45 1884.5 2903.91 1882.87 2903.91 1879.6C2903.91 1876.33 2904.85 1874.47 2906.71 1874C2908.58 1873.53 2914.65 1873.3 2924.91 1873.3C2920.25 1873.3 2928.65 1873.53 2950.11 1874C2971.58 1874.47 2990.01 1874.7 3005.41 1874.7H3041.11C3048.58 1874.7 3059.08 1874.47 3072.61 1874C3086.61 1873.07 3096.41 1872.6 3102.01 1872.6H3109.01C3115.08 1872.6 3118.11 1874.47 3118.11 1878.2C3118.11 1881 3116.95 1882.87 3114.61 1883.8C3112.75 1884.27 3105.75 1884.73 3093.61 1885.2C3079.15 1886.13 3070.28 1889.17 3067.01 1894.3L3064.91 1907.6V2303.1C3064.91 2323.17 3067.01 2335.07 3071.21 2338.8C3075.88 2342.53 3091.05 2345.1 3116.71 2346.5C3120.91 2346.97 3123.01 2348.83 3123.01 2352.1Z" fill="white"/>
<path d="M2251.04 2823.5C2251.04 2824.43 2250.8 2846.13 2250.34 2888.6C2249.87 2911 2249.4 2927.1 2248.94 2936.9C2248.94 2946.7 2248.94 2951.37 2248.94 2950.9C2125.74 2945.3 2017.94 2943.67 1925.54 2946L1866.74 2947.4C1858.34 2947.4 1854.14 2945.53 1854.14 2941.8C1854.14 2939 1855.07 2937.37 1856.94 2936.9C1859.27 2936.43 1866.5 2935.73 1878.64 2934.8C1900.57 2933.4 1912.47 2927.1 1914.34 2915.9C1915.27 2909.83 1915.74 2903.07 1915.74 2895.6V2540.7C1915.74 2512.7 1915.5 2497.3 1915.04 2494.5C1914.57 2487.03 1912.24 2481.9 1908.04 2479.1C1903.84 2476.3 1895.2 2474.9 1882.14 2474.9C1867.67 2474.9 1860.44 2472.8 1860.44 2468.6C1860.44 2463.93 1866.74 2461.6 1879.34 2461.6C1892.4 2461.6 1910.37 2461.37 1933.24 2460.9C2019.1 2459.03 2089.34 2458.57 2143.94 2459.5L2191.54 2460.2C2201.8 2460.2 2214.4 2459.27 2229.34 2457.4L2235.64 2533.7C2237.97 2557.97 2239.14 2572.9 2239.14 2578.5C2239.14 2583.17 2236.8 2585.5 2232.14 2585.5C2227.47 2585.5 2224.44 2579.43 2223.04 2567.3C2218.84 2535.1 2205.77 2511.77 2183.84 2497.3C2162.37 2482.37 2130.4 2474.9 2087.94 2474.9C2074.87 2474.9 2052.47 2475.6 2020.74 2477V2683.5C2072.07 2683.97 2104.27 2680.47 2117.34 2673C2130.87 2665.07 2139.97 2645 2144.64 2612.8C2146.97 2595.53 2150.47 2586.9 2155.14 2586.9C2159.34 2586.9 2161.44 2591.1 2161.44 2599.5C2161.44 2607.9 2160.74 2625.17 2159.34 2651.3C2158.87 2660.17 2158.64 2672.07 2158.64 2687C2158.64 2727.13 2159.1 2757.47 2160.04 2778C2160.5 2780.8 2160.74 2784.3 2160.74 2788.5C2160.74 2794.1 2158.64 2796.9 2154.44 2796.9C2151.17 2796.9 2149.07 2795.97 2148.14 2794.1C2147.2 2791.77 2145.8 2784.07 2143.94 2771C2139.27 2737.87 2132.74 2717.33 2124.34 2709.4C2116.4 2701 2097.74 2696.8 2068.34 2696.8H2020.74V2932.7L2065.54 2932C2116.87 2931.07 2148.14 2929.9 2159.34 2928.5C2173.34 2926.63 2186.87 2921.5 2199.94 2913.1C2211.6 2903.77 2219.54 2893.73 2223.74 2883C2228.4 2872.27 2233.3 2852.43 2238.44 2823.5C2239.84 2816.5 2242.17 2813 2245.44 2813C2249.17 2813 2251.04 2816.5 2251.04 2823.5ZM2922.15 2467.9C2922.15 2471.63 2918.65 2473.73 2911.65 2474.2C2890.65 2475.13 2877.35 2477.7 2871.75 2481.9C2866.15 2485.63 2859.85 2497.3 2852.85 2516.9C2848.65 2527.63 2842.35 2543.97 2833.95 2565.9C2827.88 2584.1 2818.31 2612.1 2805.25 2649.9C2798.71 2667.63 2788.91 2694.47 2775.85 2730.4L2741.55 2826.3C2717.28 2893.97 2703.75 2932.93 2700.95 2943.2C2699.08 2949.27 2696.98 2952.3 2694.65 2952.3C2691.85 2952.3 2689.51 2950.2 2687.65 2946C2685.78 2941.33 2680.41 2925.23 2671.55 2897.7C2659.88 2861.3 2642.85 2816.03 2620.45 2761.9L2596.65 2704.5C2549.98 2804.37 2516.38 2883.7 2495.85 2942.5C2493.51 2948.57 2490.95 2951.6 2488.15 2951.6C2486.28 2951.6 2480.45 2939.23 2470.65 2914.5L2385.25 2691.9C2364.71 2635.9 2338.35 2569.17 2306.15 2491.7C2302.88 2483.3 2297.51 2478.17 2290.05 2476.3C2285.85 2474.9 2277.68 2474.2 2265.55 2474.2C2253.41 2474.2 2247.35 2472.1 2247.35 2467.9C2247.35 2464.17 2250.61 2462.3 2257.15 2462.3C2256.68 2462.3 2264.38 2462.3 2280.25 2462.3C2296.58 2462.77 2310.58 2463 2322.25 2463H2348.85L2419.55 2461.6C2421.88 2461.6 2425.85 2461.37 2431.45 2460.9C2436.11 2460.9 2439.38 2460.9 2441.25 2460.9C2447.31 2460.9 2450.35 2463.23 2450.35 2467.9C2450.35 2472.1 2442.88 2473.97 2427.95 2473.5C2420.01 2473.5 2416.05 2475.6 2416.05 2479.8C2416.05 2481.67 2416.51 2483.77 2417.45 2486.1C2427.71 2514.57 2443.35 2557.03 2464.35 2613.5L2536.45 2799.7L2585.45 2687.7C2578.45 2667.17 2564.91 2630.3 2544.85 2577.1C2541.11 2568.7 2535.98 2555.87 2529.45 2538.6C2528.05 2534.4 2525.71 2527.87 2522.45 2519C2514.51 2497.53 2507.98 2484.7 2502.85 2480.5C2497.71 2475.83 2486.98 2473.5 2470.65 2473.5C2465.98 2473.03 2463.65 2470.93 2463.65 2467.2C2463.65 2463 2468.08 2460.9 2476.95 2460.9C2475.55 2460.9 2477.88 2461.13 2483.95 2461.6C2490.48 2462.07 2500.98 2462.3 2515.45 2462.3L2759.75 2461.6C2768.61 2461.13 2773.05 2463.23 2773.05 2467.9C2773.05 2471.63 2769.55 2473.5 2762.55 2473.5C2729.41 2473.03 2710.28 2478.63 2705.15 2490.3C2697.21 2502.9 2680.65 2538.6 2655.45 2597.4C2671.78 2639.4 2697.91 2705.9 2733.85 2796.9C2741.31 2777.77 2749.25 2756.53 2757.65 2733.2C2765.11 2713.6 2777.25 2680.23 2794.05 2633.1C2804.78 2601.83 2813.88 2576.4 2821.35 2556.8C2833.95 2523.67 2840.25 2502.2 2840.25 2492.4C2840.25 2483.07 2835.58 2477.23 2826.25 2474.9C2822.98 2473.97 2814.58 2473.5 2801.05 2473.5C2793.58 2473.5 2789.85 2471.63 2789.85 2467.9C2789.85 2464.17 2793.35 2462.3 2800.35 2462.3L2855.65 2463.7C2879.45 2464.17 2897.41 2463.7 2909.55 2462.3H2915.15C2919.81 2462.3 2922.15 2464.17 2922.15 2467.9ZM2682.05 2492.4C2682.05 2479.8 2670.85 2473.5 2648.45 2473.5C2625.58 2473.5 2614.15 2477.7 2614.15 2486.1C2614.15 2497.77 2625.35 2527.63 2647.75 2575.7C2670.61 2528.1 2682.05 2500.33 2682.05 2492.4ZM3296.94 2823.5C3296.94 2824.43 3296.7 2846.13 3296.24 2888.6C3295.77 2911 3295.3 2927.1 3294.84 2936.9C3294.84 2946.7 3294.84 2951.37 3294.84 2950.9C3171.64 2945.3 3063.84 2943.67 2971.44 2946L2912.64 2947.4C2904.24 2947.4 2900.04 2945.53 2900.04 2941.8C2900.04 2939 2900.97 2937.37 2902.84 2936.9C2905.17 2936.43 2912.4 2935.73 2924.54 2934.8C2946.47 2933.4 2958.37 2927.1 2960.24 2915.9C2961.17 2909.83 2961.64 2903.07 2961.64 2895.6V2540.7C2961.64 2512.7 2961.4 2497.3 2960.94 2494.5C2960.47 2487.03 2958.14 2481.9 2953.94 2479.1C2949.74 2476.3 2941.1 2474.9 2928.04 2474.9C2913.57 2474.9 2906.34 2472.8 2906.34 2468.6C2906.34 2463.93 2912.64 2461.6 2925.24 2461.6C2938.3 2461.6 2956.27 2461.37 2979.14 2460.9C3065 2459.03 3135.24 2458.57 3189.84 2459.5L3237.44 2460.2C3247.7 2460.2 3260.3 2459.27 3275.24 2457.4L3281.54 2533.7C3283.87 2557.97 3285.04 2572.9 3285.04 2578.5C3285.04 2583.17 3282.7 2585.5 3278.04 2585.5C3273.37 2585.5 3270.34 2579.43 3268.94 2567.3C3264.74 2535.1 3251.67 2511.77 3229.74 2497.3C3208.27 2482.37 3176.3 2474.9 3133.84 2474.9C3120.77 2474.9 3098.37 2475.6 3066.64 2477V2683.5C3117.97 2683.97 3150.17 2680.47 3163.24 2673C3176.77 2665.07 3185.87 2645 3190.54 2612.8C3192.87 2595.53 3196.37 2586.9 3201.04 2586.9C3205.24 2586.9 3207.34 2591.1 3207.34 2599.5C3207.34 2607.9 3206.64 2625.17 3205.24 2651.3C3204.77 2660.17 3204.54 2672.07 3204.54 2687C3204.54 2727.13 3205 2757.47 3205.94 2778C3206.4 2780.8 3206.64 2784.3 3206.64 2788.5C3206.64 2794.1 3204.54 2796.9 3200.34 2796.9C3197.07 2796.9 3194.97 2795.97 3194.04 2794.1C3193.1 2791.77 3191.7 2784.07 3189.84 2771C3185.17 2737.87 3178.64 2717.33 3170.24 2709.4C3162.3 2701 3143.64 2696.8 3114.24 2696.8H3066.64V2932.7L3111.44 2932C3162.77 2931.07 3194.04 2929.9 3205.24 2928.5C3219.24 2926.63 3232.77 2921.5 3245.84 2913.1C3257.5 2903.77 3265.44 2893.73 3269.64 2883C3274.3 2872.27 3279.2 2852.43 3284.34 2823.5C3285.74 2816.5 3288.07 2813 3291.34 2813C3295.07 2813 3296.94 2816.5 3296.94 2823.5ZM3703.44 2827.7C3703.44 2836.57 3703.21 2844.03 3702.74 2850.1C3700.88 2870.63 3700.18 2887.2 3700.64 2899.8L3701.34 2949.5C3641.61 2947.17 3533.58 2946 3377.24 2946H3347.84C3327.31 2946 3317.04 2944.13 3317.04 2940.4C3317.04 2936.67 3320.31 2934.8 3326.84 2934.8C3350.18 2934.33 3365.11 2931.07 3371.64 2925C3375.84 2921.27 3377.94 2910.07 3377.94 2891.4L3377.24 2512C3377.24 2496.13 3375.84 2486.33 3373.04 2482.6C3367.44 2475.6 3358.81 2472.33 3347.14 2472.8L3329.64 2473.5C3324.51 2473.5 3321.94 2471.63 3321.94 2467.9C3321.94 2464.17 3325.21 2462.3 3331.74 2462.3C3335.48 2462.3 3339.21 2462.53 3342.94 2463H3520.74C3523.08 2462.53 3525.64 2462.3 3528.44 2462.3C3533.11 2462.3 3535.44 2464.17 3535.44 2467.9C3535.44 2472.1 3529.38 2474.2 3517.24 2474.2C3499.98 2474.2 3489.71 2476.3 3486.44 2480.5C3483.64 2484.7 3482.24 2503.13 3482.24 2535.8V2702.4C3482.24 2736.47 3483.18 2812.77 3485.04 2931.3C3493.91 2931.77 3503.94 2932 3515.14 2932C3564.14 2932 3597.98 2930.13 3616.64 2926.4C3646.04 2920.33 3666.11 2905.4 3676.84 2881.6C3682.44 2869.47 3687.58 2850.1 3692.24 2823.5C3693.64 2816.03 3695.74 2812.3 3698.54 2812.3C3701.81 2812.3 3703.44 2817.43 3703.44 2827.7Z" fill="white"/>
<path d="M1589.91 3072.6C1609.51 3070.73 1625.61 3064.9 1638.21 3055.1C1651.28 3045.77 1661.08 3029.9 1667.61 3007.5C1674.61 2985.57 1678.11 2955.47 1678.11 2917.2V2533.6C1678.11 2515.87 1676.71 2503.03 1673.91 2495.1C1671.58 2487.17 1666.68 2481.8 1659.21 2479C1652.21 2476.2 1641.01 2474.33 1625.61 2473.4V2459.4C1648.94 2460.8 1684.18 2461.5 1731.31 2461.5C1779.38 2461.5 1816.24 2460.8 1841.91 2459.4V2473.4C1826.04 2474.33 1814.61 2476.2 1807.61 2479C1800.61 2481.8 1795.71 2487.17 1792.91 2495.1C1790.58 2503.03 1789.41 2515.87 1789.41 2533.6V2789.8V2832.5C1789.41 2898.3 1785.44 2944.97 1777.51 2972.5C1767.71 3006.57 1746.71 3034.1 1714.51 3055.1C1682.78 3076.1 1641.24 3086.6 1589.91 3086.6V3072.6Z" fill="white"/>
</g>
<path d="M987.436 1613.49L1002.81 1589.49L1080.35 1639.19L1141.22 1544.23L1063.68 1494.53L1079.06 1470.53L1259.4 1586.12L1244.02 1610.11L1161.43 1557.18L1100.56 1652.14L1183.15 1705.08L1167.77 1729.07L987.436 1613.49Z" fill="white"/>
<path d="M1258.42 1446.28L1306.73 1392.09L1208.4 1352.27L1208 1352.72L1258.42 1446.28ZM1178.76 1346.75L1199.72 1323.23L1415.31 1403.27L1394.35 1426.79L1330.63 1401.34L1270.35 1468.97L1302.53 1529.81L1283.17 1551.53L1178.76 1346.75Z" fill="white"/>
<path d="M1308.27 1210.41L1331.72 1191.23L1529.01 1254.27L1529.47 1253.89L1419.5 1119.43L1440.4 1102.34L1576.01 1268.15L1551.86 1287.9L1356.41 1225.68L1355.95 1226.06L1464.78 1359.12L1443.88 1376.22L1308.27 1210.41Z" fill="white"/>
<path d="M1642.8 1195.03L1683.86 1171.35C1686.63 1169.75 1690 1167.58 1693.96 1164.84C1697.81 1161.92 1701.63 1158.33 1705.41 1154.07C1709.09 1149.64 1712.28 1144.57 1714.99 1138.85C1717.87 1133.04 1719.58 1126.4 1720.12 1118.93C1720.66 1111.46 1719.76 1103.09 1717.42 1093.82C1715.15 1084.28 1710.71 1073.79 1704.12 1062.36C1697.72 1051.27 1690.9 1042.04 1683.66 1034.68C1676.48 1027.04 1668.63 1021.64 1660.11 1018.47C1651.66 1015.03 1642.64 1014 1633.05 1015.38C1623.35 1016.58 1612.79 1020.48 1601.35 1027.08L1559.77 1051.06L1642.8 1195.03ZM1523.09 1044.5L1586.76 1007.78C1615.35 991.299 1641.55 985.886 1665.36 991.547C1689.18 997.209 1709.67 1014.94 1726.86 1044.74C1735.85 1060.33 1742.11 1075.19 1745.64 1089.32C1749.07 1103.27 1749.54 1116.5 1747.06 1129.02C1744.48 1141.36 1738.81 1152.94 1730.05 1163.76C1721.28 1174.59 1709.19 1184.45 1693.77 1193.34L1630.1 1230.06L1523.09 1044.5Z" fill="white"/>
<path d="M1919.99 925.214C1911.62 912.126 1900.95 903.971 1887.98 900.749C1875.19 897.456 1861.78 898.461 1847.74 903.762C1835.77 908.286 1826.33 914.418 1819.42 922.16C1812.7 929.831 1807.98 938.562 1805.26 948.353C1802.66 957.887 1801.89 968.013 1802.95 978.731C1804.01 989.45 1806.51 1000.05 1810.47 1010.52C1814.78 1021.94 1820.19 1032.29 1826.7 1041.59C1833.13 1050.71 1840.51 1058.08 1848.84 1063.7C1857.28 1069.06 1866.65 1072.36 1876.95 1073.6C1887.26 1074.84 1898.39 1073.2 1910.37 1068.67C1919.16 1065.35 1926.4 1061.01 1932.07 1055.66C1937.86 1050.05 1942.24 1043.8 1945.19 1036.92C1948.26 1029.77 1949.86 1022.11 1949.98 1013.94C1950.1 1005.77 1948.89 997.463 1946.34 989.019L1973 978.947C1979.92 1005.19 1978.64 1028.13 1969.16 1047.74C1959.69 1067.36 1942.13 1082.01 1916.5 1091.69C1900.97 1097.56 1886.42 1100.06 1872.84 1099.21C1859.19 1098.16 1846.76 1094.41 1835.56 1087.96C1824.35 1081.5 1814.38 1072.65 1805.64 1061.41C1797.1 1050.11 1790.07 1037.15 1784.55 1022.56C1779.04 1007.97 1775.94 993.533 1775.25 979.256C1774.49 964.791 1776.23 951.304 1780.48 938.793C1784.92 926.212 1792.01 914.982 1801.75 905.103C1811.6 894.967 1824.2 887.001 1839.54 881.205C1850.02 877.246 1860.47 874.903 1870.88 874.176C1881.3 873.448 1891.18 874.419 1900.52 877.088C1909.87 879.757 1918.53 884.288 1926.5 890.683C1934.41 896.89 1941.12 905.043 1946.65 915.142L1919.99 925.214Z" fill="white"/>
<path d="M2012.09 829.538L2110.86 809.407C2130.85 805.332 2147.42 807.056 2160.59 814.578C2173.96 822.06 2182.37 834.325 2185.85 851.375C2188.45 864.113 2187.78 875.882 2183.86 886.683C2180.14 897.444 2172.26 905.886 2160.24 912.01L2160.36 912.598C2166.68 912.536 2171.98 913.497 2176.26 915.481C2180.74 917.426 2184.46 920.139 2187.41 923.619C2190.52 926.863 2193.04 930.737 2194.98 935.24C2197.12 939.704 2199 944.423 2200.62 949.399C2202.06 954.414 2203.41 959.547 2204.68 964.799C2205.96 970.05 2207.51 975.143 2209.33 980.079C2211.15 985.014 2213.23 989.694 2215.56 994.117C2218.04 998.305 2221.12 1001.86 2224.77 1004.79L2193.61 1011.14C2191.22 1009.39 2189.24 1006.73 2187.7 1003.16C2186.36 999.559 2185.12 995.524 2184.01 991.056C2182.86 986.393 2181.64 981.436 2180.37 976.184C2179.09 970.933 2177.45 965.86 2175.43 960.964C2173.6 956.029 2171.65 951.427 2169.55 947.159C2167.42 942.696 2164.74 939.058 2161.51 936.246C2158.24 933.237 2154.35 931.173 2149.84 930.052C2145.28 928.735 2139.58 928.776 2132.72 930.174L2064.52 944.074L2082.79 1033.73L2054.87 1039.42L2012.09 829.538ZM2117.93 908.694C2124.4 907.376 2130.47 905.628 2136.15 903.45C2141.83 901.272 2146.54 898.372 2150.3 894.749C2154.2 890.891 2156.95 886.351 2158.54 881.128C2160.29 875.669 2160.38 869.119 2158.82 861.476C2156.67 850.894 2151.97 842.87 2144.73 837.405C2137.49 831.941 2127.31 830.546 2114.18 833.223L2044.81 847.363L2059.73 920.558L2117.93 908.694Z" fill="white"/>
<path d="M2308.2 909.01L2380.72 905.508L2340.24 807.446L2339.64 807.475L2308.2 909.01ZM2323.41 782.429L2354.88 780.909L2448.81 990.822L2417.35 992.342L2390.87 929.045L2300.37 933.416L2279.51 998.999L2250.44 1000.4L2323.41 782.429Z" fill="white"/>
<path d="M2506.64 780.179L2646.75 793.108L2644.54 817.006L2532.82 806.696L2526.56 874.508L2624.55 883.55L2622.34 907.448L2524.36 898.407L2515.34 996.092L2486.96 993.473L2506.64 780.179Z" fill="white"/>
<path d="M2763.19 839.546L2693.57 823.708L2698.89 800.306L2865.93 838.303L2860.6 861.706L2790.98 845.868L2748.79 1031.33L2721 1025.01L2763.19 839.546Z" fill="white"/>
<path d="M2932.79 858.945L3071.28 910.863L3062.85 933.336L2951.05 891.422L2927.14 955.188L3031.36 994.259L3022.94 1016.73L2918.72 977.661L2892.71 1047.05L3005.35 1089.28L2996.93 1111.75L2857.6 1059.51L2932.79 858.945Z" fill="white"/>
<path d="M3082.24 1126.11L3123.64 1149.19C3126.44 1150.75 3130.03 1152.52 3134.42 1154.51C3138.9 1156.32 3143.94 1157.75 3149.54 1158.81C3155.23 1159.69 3161.22 1159.83 3167.51 1159.21C3173.98 1158.7 3180.56 1156.75 3187.25 1153.38C3193.94 1150.01 3200.65 1144.94 3207.4 1138.17C3214.43 1131.32 3221.15 1122.13 3227.58 1110.6C3233.81 1099.42 3238.22 1088.83 3240.82 1078.83C3243.69 1068.75 3244.29 1059.25 3242.64 1050.31C3241.25 1041.29 3237.5 1033.02 3231.39 1025.5C3225.38 1017.8 3216.61 1010.73 3205.08 1004.31L3163.15 980.938L3082.24 1126.11ZM3149.94 946.099L3214.14 981.881C3242.97 997.947 3261.07 1017.65 3268.44 1040.99C3275.81 1064.33 3271.12 1091.02 3254.37 1121.07C3245.61 1136.8 3236.07 1149.8 3225.76 1160.08C3215.55 1170.19 3204.44 1177.39 3192.43 1181.68C3180.51 1185.81 3167.66 1186.89 3153.87 1184.92C3140.08 1182.96 3125.41 1177.65 3109.86 1168.98L3045.66 1133.2L3149.94 946.099Z" fill="white"/>
<path d="M3460.61 1435.41L3439.07 1414.96L3527.49 1250.73L3527.05 1250.32L3367.25 1346.82L3345.7 1326.38L3453.31 1133.21L3474.42 1153.24L3382.23 1311.42L3382.67 1311.83L3540.14 1215.59L3562.56 1236.86L3474.29 1398.76L3474.73 1399.17L3628.94 1299.84L3649.61 1319.46L3460.61 1435.41Z" fill="white"/>
<path d="M3697.87 1383.17L3715.69 1405.41L3548.54 1539.36L3530.72 1517.12L3697.87 1383.17Z" fill="white"/>
<path d="M3769.72 1519.98L3730.55 1460.29L3750.62 1447.12L3844.59 1590.34L3824.53 1603.51L3785.36 1543.81L3626.33 1648.15L3610.7 1624.32L3769.72 1519.98Z" fill="white"/>
<path d="M3880.22 1653.15L3892.18 1679.01L3808.6 1717.69L3855.96 1820.06L3939.55 1781.39L3951.51 1807.25L3757.11 1897.2L3745.14 1871.33L3834.18 1830.14L3786.81 1727.76L3697.78 1768.96L3685.81 1743.09L3880.22 1653.15Z" fill="white"/>
<path d="M4014.81 1997.47L4021.27 2025.22L3836.04 2068.38L3861.77 2178.82L3838.39 2184.27L3806.19 2046.07L4014.81 1997.47Z" fill="white"/>
<path d="M3951.98 2221.01C3941.21 2221.92 3930.67 2224.21 3920.34 2227.89C3910.21 2231.55 3901.22 2236.73 3893.35 2243.41C3885.48 2250.09 3879.35 2258.34 3874.96 2268.14C3870.77 2277.93 3869.22 2289.3 3870.31 2302.25C3871.4 2315.21 3874.83 2326.16 3880.6 2335.1C3886.58 2344.03 3894 2351.14 3902.87 2356.41C3911.75 2361.68 3921.48 2365.28 3932.08 2367.2C3942.88 2369.1 3953.66 2369.59 3964.42 2368.69C3975.18 2367.78 3985.63 2365.49 3995.76 2361.83C4006.08 2358.15 4015.18 2352.97 4023.05 2346.28C4030.91 2339.6 4036.94 2331.36 4041.14 2321.58C4045.53 2311.77 4047.18 2300.39 4046.09 2287.44C4044.99 2274.49 4041.46 2263.54 4035.49 2254.61C4029.72 2245.67 4022.4 2238.56 4013.52 2233.28C4004.65 2228.01 3994.81 2224.42 3984.02 2222.52C3973.42 2220.61 3962.74 2220.1 3951.98 2221.01ZM3949.58 2192.61C3964.13 2191.38 3978.26 2192.3 3991.96 2195.36C4005.88 2198.6 4018.39 2204.07 4029.47 2211.77C4040.56 2219.46 4049.73 2229.43 4056.98 2241.66C4064.23 2253.9 4068.57 2268.49 4070 2285.43C4071.43 2302.37 4069.59 2317.47 4064.49 2330.75C4059.38 2344.02 4052.01 2355.38 4042.37 2364.83C4032.73 2374.27 4021.31 2381.65 4008.11 2386.98C3995.13 2392.49 3981.36 2395.86 3966.81 2397.08C3952.27 2398.31 3938.03 2397.3 3924.11 2394.06C3910.4 2391 3898.01 2385.62 3886.92 2377.93C3875.84 2370.23 3866.67 2360.26 3859.41 2348.03C3852.36 2335.78 3848.12 2321.18 3846.69 2304.24C3845.27 2287.3 3847 2272.2 3851.91 2258.95C3857.01 2245.67 3864.38 2234.31 3874.02 2224.87C3883.67 2215.43 3894.98 2207.95 3907.96 2202.44C3921.16 2197.11 3935.03 2193.84 3949.58 2192.61Z" fill="white"/>
<path d="M3852.38 2540.92L3854.71 2508.61L4073.76 2448.88L4071.57 2479.41L3881.95 2527.11L3881.91 2527.71L4062.69 2602.69L4060.56 2632.31L3852.38 2540.92Z" fill="white"/>
<path d="M4049.72 2701.19L4018.58 2845.77L3995.12 2840.72L4020.26 2724L3953.69 2709.65L3930.25 2818.46L3906.79 2813.41L3930.23 2704.6L3857.79 2689L3832.45 2806.6L3808.99 2801.55L3840.33 2656.08L4049.72 2701.19Z" fill="white"/>
<path d="M989.371 2525.75L1004.57 2625.4C1007.64 2645.56 1005.1 2662.04 996.931 2674.81C988.795 2687.79 976.126 2695.59 958.925 2698.21C946.073 2700.17 934.351 2698.92 923.759 2694.47C913.196 2690.21 905.156 2681.93 899.637 2669.62L899.044 2669.71C898.792 2676.02 897.569 2681.27 895.374 2685.45C893.209 2689.82 890.315 2693.4 886.692 2696.18C883.298 2699.12 879.303 2701.45 874.709 2703.16C870.145 2705.07 865.337 2706.72 860.287 2708.09C855.207 2709.27 850.013 2710.37 844.705 2711.38C839.397 2712.39 834.233 2713.69 829.213 2715.26C824.193 2716.84 819.416 2718.68 814.882 2720.78C810.575 2723.06 806.869 2725.95 803.762 2729.46L798.968 2698.02C800.841 2695.72 803.596 2693.88 807.232 2692.52C810.898 2691.35 814.99 2690.32 819.507 2689.43C824.222 2688.51 829.234 2687.54 834.542 2686.53C839.85 2685.52 844.999 2684.13 849.989 2682.35C855.009 2680.78 859.702 2679.05 864.068 2677.17C868.632 2675.26 872.399 2672.76 875.368 2669.68C878.535 2666.57 880.791 2662.79 882.134 2658.33C883.676 2653.85 883.919 2648.15 882.864 2641.23L872.37 2572.42L781.916 2586.22L777.619 2558.04L989.371 2525.75ZM905.052 2627.52C906.047 2634.05 907.491 2640.2 909.384 2645.98C911.277 2651.76 913.939 2656.62 917.371 2660.54C921.03 2664.64 925.428 2667.61 930.565 2669.46C935.93 2671.47 942.468 2671.89 950.179 2670.71C960.856 2669.09 969.103 2664.79 974.92 2657.84C980.738 2650.88 982.637 2640.78 980.617 2627.53L969.942 2557.54L896.096 2568.8L905.052 2627.52Z" fill="white"/>
<path d="M943.963 2948.86C917.866 2957.21 896.021 2956.53 878.428 2946.84C861.026 2937.07 848.211 2919.34 839.982 2893.62C831.571 2867.33 831.179 2844.78 838.807 2825.96C846.686 2807.27 864.245 2793.57 891.485 2784.85L1021.78 2743.16L1030.46 2770.31L900.17 2812C881.883 2817.85 869.532 2827.15 863.116 2839.92C856.891 2852.62 856.704 2868.11 862.555 2886.4C868.101 2903.73 876.974 2915.38 889.172 2921.35C901.622 2927.44 916.991 2927.57 935.277 2921.72L1065.57 2880.03L1074.26 2907.17L943.963 2948.86Z" fill="white"/>
<path d="M1104.49 3131.08C1116.58 3121.32 1123.51 3109.82 1125.28 3096.56C1127.15 3083.49 1124.67 3070.27 1117.86 3056.91C1112.04 3045.51 1104.91 3036.8 1096.45 3030.78C1088.09 3024.94 1078.89 3021.22 1068.86 3019.6C1059.1 3018.06 1048.95 3018.41 1038.41 3020.64C1027.87 3022.87 1017.62 3026.53 1007.64 3031.62C996.771 3037.16 987.073 3043.68 978.546 3051.17C970.197 3058.57 963.687 3066.72 959.017 3075.61C954.616 3084.59 952.367 3094.27 952.27 3104.64C952.173 3115.02 955.032 3125.91 960.847 3137.31C965.117 3145.69 970.224 3152.4 976.168 3157.45C982.38 3162.59 989.073 3166.25 996.246 3168.43C1003.69 3170.69 1011.48 3171.44 1019.61 3170.66C1027.74 3169.88 1035.86 3167.76 1043.98 3164.29L1056.92 3189.68C1031.6 3199.45 1008.67 3200.71 988.126 3193.45C967.585 3186.19 951.091 3170.35 938.644 3145.94C931.103 3131.15 927.01 3116.96 926.365 3103.37C925.899 3089.69 928.258 3076.93 933.441 3065.08C938.625 3053.23 946.32 3042.35 956.528 3032.43C966.827 3022.69 978.924 3014.27 992.822 3007.18C1006.72 3000.1 1020.73 2995.42 1034.84 2993.17C1049.13 2990.82 1062.73 2991.07 1075.63 2993.92C1088.63 2996.94 1100.57 3002.75 1111.46 3011.34C1122.62 3020.02 1131.92 3031.66 1139.37 3046.27C1144.46 3056.25 1147.94 3066.38 1149.81 3076.65C1151.68 3086.92 1151.81 3096.85 1150.18 3106.43C1148.56 3116.01 1145.01 3125.12 1139.53 3133.75C1134.23 3142.29 1126.87 3149.86 1117.44 3156.47L1104.49 3131.08Z" fill="white"/>
<path d="M1200.03 3176.58L1216.91 3199.55L1142.7 3254.1L1209.51 3344.98L1283.72 3290.43L1300.6 3313.4L1128.01 3440.26L1111.13 3417.3L1190.17 3359.2L1123.36 3268.31L1044.32 3326.41L1027.44 3303.45L1200.03 3176.58Z" fill="white"/>
<path d="M1352.94 3374.63L1372.25 3395.59L1214.74 3540.75L1195.43 3519.79L1352.94 3374.63Z" fill="white"/>
<path d="M1397.13 3427.61L1418.53 3446.43L1348.02 3526.64L1500.09 3518.13L1527.81 3542.5L1402.94 3547.76L1389.08 3705.74L1362.05 3681.98L1375.42 3549.53L1326.62 3550.97L1277.1 3607.3L1255.7 3588.48L1397.13 3427.61Z" fill="white"/>
<path d="M1523.74 3696.37L1584.81 3735.62L1608.79 3632.28L1608.29 3631.96L1523.74 3696.37ZM1609.62 3602.14L1636.12 3619.17L1590.72 3844.62L1564.22 3827.59L1579.41 3760.68L1503.19 3711.69L1448.13 3752.98L1423.65 3737.24L1609.62 3602.14Z" fill="white"/>
<path d="M1812.03 3820.98L1865.4 3841.01C1880.56 3846.7 1892.41 3848.16 1900.93 3845.37C1909.71 3842.47 1916.1 3835.69 1920.11 3825.01C1922.78 3817.9 1923.76 3811.86 1923.06 3806.9C1922.36 3801.93 1920.46 3797.59 1917.37 3793.87C1914.29 3790.14 1910.22 3787.02 1905.19 3784.49C1900.42 3781.84 1895.13 3779.43 1889.32 3777.25L1835.96 3757.22L1812.03 3820.98ZM1817.71 3724.74L1890.45 3752.04C1894.76 3753.66 1899.31 3755.47 1904.11 3757.49C1909.17 3759.38 1914.02 3761.53 1918.68 3763.92C1923.41 3766.12 1927.66 3768.46 1931.42 3770.94C1935.38 3773.49 1938.5 3776.27 1940.8 3779.27C1945.88 3785.66 1949.36 3793.16 1951.26 3801.78C1953.34 3810.46 1952.48 3819.86 1948.69 3829.97C1944.68 3840.64 1938.58 3848.93 1930.39 3854.83C1922.45 3860.61 1913 3863.58 1902.05 3863.74L1901.84 3864.3C1913.21 3871.56 1920.56 3880.72 1923.88 3891.8C1927.2 3902.87 1926.54 3914.59 1921.91 3926.94C1919.16 3934.25 1915.18 3940.87 1909.96 3946.81C1904.74 3952.76 1898.49 3957.46 1891.21 3960.93C1884.19 3964.27 1876.2 3966.19 1867.26 3966.68C1858.58 3967.05 1849.27 3965.37 1839.35 3961.65L1742.45 3925.28L1817.71 3724.74ZM1777.56 3912.83L1844.41 3937.91C1856.21 3942.34 1866.58 3942.6 1875.52 3938.7C1884.65 3934.86 1891.32 3927.32 1895.54 3916.09C1898 3909.53 1898.82 3903.65 1898 3898.43C1897.18 3893.21 1895.17 3888.61 1891.97 3884.63C1889.02 3880.53 1885.1 3877.03 1880.21 3874.12C1875.38 3871.03 1870.16 3868.43 1864.55 3866.33L1803.6 3843.45L1777.56 3912.83Z" fill="white"/>
<path d="M2038.55 3933.49L2109.53 3948.71L2095.57 3843.55L2094.98 3843.42L2038.55 3933.49ZM2085.72 3815.05L2116.52 3821.65L2153.47 4048.64L2122.66 4042.04L2113.3 3974.06L2024.72 3955.07L1987.73 4013.11L1959.28 4007.01L2085.72 3815.05Z" fill="white"/>
<path d="M2371.71 3919.33C2369.39 3903.97 2362.96 3892.18 2352.41 3883.96C2342.07 3875.75 2329.41 3871.21 2314.44 3870.34C2301.66 3869.6 2290.54 3871.37 2281.08 3875.63C2271.81 3879.9 2263.95 3885.96 2257.49 3893.8C2251.24 3901.45 2246.41 3910.38 2243.02 3920.61C2239.62 3930.83 2237.6 3941.53 2236.96 3952.71C2236.25 3964.89 2236.98 3976.55 2239.14 3987.69C2241.31 3998.64 2245.06 4008.37 2250.38 4016.89C2255.9 4025.22 2263.12 4032.05 2272.03 4037.37C2280.94 4042.7 2291.78 4045.73 2304.56 4046.47C2313.94 4047.01 2322.32 4045.99 2329.68 4043.41C2337.25 4040.64 2343.79 4036.71 2349.29 4031.62C2355 4026.34 2359.58 4020 2363.01 4012.58C2366.44 4005.17 2368.71 3997.08 2369.82 3988.33L2398.27 3989.98C2393.92 4016.77 2383.43 4037.2 2366.79 4051.26C2350.15 4065.33 2328.15 4071.57 2300.8 4069.99C2284.22 4069.03 2269.91 4065.4 2257.85 4059.09C2245.81 4052.59 2235.98 4044.11 2228.37 4033.65C2220.76 4023.19 2215.25 4011.05 2211.84 3997.24C2208.64 3983.43 2207.48 3968.74 2208.38 3953.16C2209.28 3937.59 2212.32 3923.14 2217.5 3909.82C2222.69 3896.29 2229.77 3884.68 2238.74 3874.98C2247.92 3865.3 2258.96 3857.92 2271.87 3852.86C2285 3847.61 2299.75 3845.45 2316.12 3846.4C2327.3 3847.05 2337.8 3849.15 2347.61 3852.73C2357.42 3856.3 2366.05 3861.2 2373.5 3867.44C2380.95 3873.68 2387.02 3881.35 2391.71 3890.43C2396.4 3899.32 2399.22 3909.5 2400.16 3920.97L2371.71 3919.33Z" fill="white"/>
<path d="M2458.37 3859.84L2486.71 3856.82L2496.46 3948.4L2608.62 3936.47L2598.88 3844.88L2627.22 3841.87L2649.88 4054.86L2621.54 4057.88L2611.16 3960.33L2499 3972.27L2509.38 4069.82L2481.04 4072.83L2458.37 3859.84Z" fill="white"/>
<path d="M2932.69 3989.57L2904.23 3998.05L2805.95 3839.51L2805.38 3839.69L2809.35 4026.33L2780.89 4034.81L2667.1 3845.21L2694.98 3836.9L2786.13 3995.68L2786.71 3995.51L2781.81 3811.02L2811.42 3802.2L2907.75 3959.44L2908.32 3959.26L2899.11 3776.06L2926.42 3767.92L2932.69 3989.57Z" fill="white"/>
<path d="M3064.59 3845.02L3129.51 3812.52L3052.86 3739.17L3052.33 3739.44L3064.59 3845.02ZM3027.37 3723.09L3055.53 3708.98L3226.26 3863.06L3198.1 3877.16L3148.3 3829.96L3067.28 3870.51L3074.69 3938.93L3048.67 3951.96L3027.37 3723.09Z" fill="white"/>
<path d="M3161.7 3657.04L3186.4 3639.49L3378.99 3715.68L3379.48 3715.33L3278.81 3573.77L3300.82 3558.12L3424.95 3732.69L3399.52 3750.77L3208.71 3675.52L3208.22 3675.87L3307.84 3815.96L3285.83 3831.61L3161.7 3657.04Z" fill="white"/>
<path d="M3362.27 3507.16L3383.53 3488.19L3526.17 3647.99L3504.91 3666.97L3362.27 3507.16Z" fill="white"/>
<defs>
<filter id="filter0_d_146_161" x="1014.83" y="1771.9" width="2788.62" height="1414.7" filterUnits="userSpaceOnUse" color-interpolation-filters="sRGB">
<feFlood flood-opacity="0" result="BackgroundImageFix"/>
<feColorMatrix in="SourceAlpha" type="matrix" values="0 0 0 0 0 0 0 0 0 0 0 0 0 0 0 0 0 0 127 0" result="hardAlpha"/>
<feOffset/>
<feGaussianBlur stdDeviation="50"/>
<feComposite in2="hardAlpha" operator="out"/>
<feColorMatrix type="matrix" values="0 0 0 0 0 0 0 0 0 0 0 0 0 0 0.00392157 0 0 0 0.21 0"/>
<feBlend mode="normal" in2="BackgroundImageFix" result="effect1_dropShadow_146_161"/>
<feBlend mode="normal" in="SourceGraphic" in2="effect1_dropShadow_146_161" result="shape"/>
</filter>
</defs>
</svg>
