<svg width="4849" height="4849" viewBox="0 0 4849 4849" fill="none" xmlns="http://www.w3.org/2000/svg">
<path d="M2238.07 147.881C2347.26 61.264 2501.74 61.2641 2610.93 147.881L2963.33 427.406C3019.78 472.181 3090.45 495.145 3162.44 492.101L3611.83 473.094C3751.09 467.204 3876.06 558 3913.49 692.26L4034.28 1125.53C4053.63 1194.94 4097.31 1255.06 4157.34 1294.91L4532.08 1543.68C4648.2 1620.76 4695.94 1767.68 4647.3 1898.3L4490.36 2319.82C4465.22 2387.34 4465.22 2461.66 4490.36 2529.18L4647.3 2950.7C4695.94 3081.32 4648.2 3228.24 4532.08 3305.32L4157.34 3554.09C4097.31 3593.94 4053.63 3654.06 4034.28 3723.47L3913.49 4156.74C3876.06 4291 3751.09 4381.8 3611.83 4375.91L3162.44 4356.9C3090.45 4353.86 3019.78 4376.82 2963.33 4421.59L2610.93 4701.12C2501.74 4787.74 2347.26 4787.74 2238.07 4701.12L1885.67 4421.59C1829.22 4376.82 1758.55 4353.86 1686.56 4356.9L1237.17 4375.91C1097.91 4381.8 972.94 4291 935.509 4156.74L814.715 3723.47C795.366 3654.06 751.685 3593.94 691.658 3554.09L316.918 3305.32C200.796 3228.24 153.062 3081.32 201.696 2950.7L358.643 2529.18C383.783 2461.66 383.783 2387.34 358.643 2319.82L201.696 1898.3C153.062 1767.68 200.796 1620.76 316.918 1543.68L691.658 1294.91C751.685 1255.06 795.366 1194.94 814.715 1125.53L935.509 692.26C972.94 558 1097.91 467.204 1237.17 473.094L1686.56 492.101C1758.55 495.145 1829.22 472.181 1885.67 427.406L2238.07 147.881Z" fill="#93B559"/>
<path d="M2605.34 337.933L2910.46 579.957C2968.6 626.075 3041.4 649.729 3115.54 646.593L3504.65 630.136C3639.73 624.423 3760.95 712.495 3797.26 842.727L3901.85 1217.87C3921.78 1289.36 3966.77 1351.28 4028.59 1392.33L4353.06 1607.73C4465.7 1682.5 4512 1825 4464.83 1951.71L4328.93 2316.68C4303.04 2386.23 4303.04 2462.77 4328.93 2532.32L4464.83 2897.29C4512 3024 4465.7 3166.5 4353.06 3241.27L4028.59 3456.67C3966.77 3497.72 3921.78 3559.64 3901.85 3631.13L3797.26 4006.27C3760.95 4136.51 3639.73 4224.58 3504.65 4218.86L3115.54 4202.41C3041.4 4199.27 2968.6 4222.92 2910.46 4269.04L2605.34 4511.07C2499.42 4595.09 2349.58 4595.09 2243.66 4511.07L1938.54 4269.04C1880.4 4222.92 1807.6 4199.27 1733.46 4202.41L1344.35 4218.86C1209.27 4224.58 1088.05 4136.51 1051.74 4006.27L947.154 3631.13C927.225 3559.64 882.233 3497.72 820.405 3456.67L495.939 3241.27C383.301 3166.5 336.999 3024 384.174 2897.29L520.065 2532.32C545.96 2462.77 545.96 2386.23 520.065 2316.68L384.174 1951.71C336.999 1825 383.301 1682.5 495.939 1607.73L820.405 1392.33C882.233 1351.28 927.225 1289.36 947.154 1217.87L1051.74 842.727C1088.05 712.495 1209.27 624.423 1344.35 630.136L1733.46 646.593C1807.6 649.729 1880.4 626.075 1938.54 579.957L2243.66 337.933C2349.58 253.914 2499.42 253.914 2605.34 337.933Z" stroke="white" stroke-width="18" stroke-miterlimit="2.3662"/>
<path d="M1076.6 1438.41L1090.6 1422.89L1140.75 1468.13L1196.15 1406.71L1146.01 1361.47L1160 1345.95L1276.64 1451.17L1262.64 1466.68L1209.22 1418.5L1153.81 1479.92L1207.23 1528.11L1193.23 1543.62L1076.6 1438.41Z" fill="white"/>
<path d="M1277.78 1360.11L1317 1324.1L1248.16 1287.84L1247.84 1288.14L1277.78 1360.11ZM1226.94 1281.65L1243.95 1266.02L1395.41 1340.2L1378.39 1355.83L1333.76 1332.59L1284.83 1377.53L1303.86 1424.28L1288.14 1438.71L1226.94 1281.65Z" fill="white"/>
<path d="M1314.8 1203.92L1332.5 1190.48L1475.39 1241.95L1475.74 1241.68L1398.74 1140.21L1414.51 1128.24L1509.47 1253.37L1491.24 1267.2L1349.67 1216.39L1349.32 1216.66L1425.53 1317.08L1409.75 1329.05L1314.8 1203.92Z" fill="white"/>
<path d="M1546.66 1207.74L1576.25 1189.51C1578.25 1188.28 1580.67 1186.62 1583.52 1184.52C1586.28 1182.3 1589 1179.59 1591.68 1176.39C1594.29 1173.06 1596.52 1169.27 1598.38 1165.03C1600.37 1160.7 1601.48 1155.8 1601.72 1150.31C1601.95 1144.82 1601.11 1138.71 1599.2 1131.96C1597.33 1125.02 1593.86 1117.42 1588.78 1109.18C1583.86 1101.19 1578.66 1094.57 1573.19 1089.33C1567.77 1083.88 1561.9 1080.09 1555.59 1077.95C1549.32 1075.61 1542.69 1075.05 1535.68 1076.26C1528.6 1077.35 1520.94 1080.43 1512.7 1085.51L1482.73 1103.97L1546.66 1207.74ZM1455.7 1099.95L1501.59 1071.68C1522.2 1058.99 1541.29 1054.46 1558.86 1058.1C1576.44 1061.75 1591.84 1074.31 1605.08 1095.78C1612 1107.02 1616.91 1117.78 1619.79 1128.06C1622.6 1138.22 1623.23 1147.91 1621.68 1157.13C1620.05 1166.23 1616.14 1174.84 1609.95 1182.96C1603.75 1191.09 1595.1 1198.57 1583.99 1205.42L1538.1 1233.69L1455.7 1099.95Z" fill="white"/>
<path d="M1723.08 1005.96C1716.08 996.978 1707.73 991.756 1698.03 990.293C1688.47 988.766 1678.75 990.418 1668.87 995.251C1660.43 999.375 1653.96 1004.5 1649.45 1010.63C1645.06 1016.69 1642.22 1023.39 1640.91 1030.72C1639.66 1037.86 1639.79 1045.31 1641.3 1053.06C1642.81 1060.81 1645.36 1068.38 1648.97 1075.76C1652.9 1083.79 1657.56 1090.98 1662.95 1097.33C1668.27 1103.54 1674.17 1108.41 1680.63 1111.95C1687.16 1115.28 1694.23 1117.05 1701.84 1117.25C1709.44 1117.45 1717.46 1115.49 1725.9 1111.36C1732.09 1108.33 1737.07 1104.67 1740.85 1100.38C1744.69 1095.88 1747.46 1091.02 1749.14 1085.79C1750.9 1080.36 1751.54 1074.66 1751.07 1068.69C1750.59 1062.71 1749.14 1056.73 1746.7 1050.74L1765.47 1041.56C1772.33 1060.25 1772.97 1077.08 1767.39 1092.05C1761.81 1107.02 1750 1118.92 1731.95 1127.75C1721.01 1133.1 1710.56 1135.92 1700.59 1136.23C1690.55 1136.4 1681.22 1134.52 1672.6 1130.57C1663.97 1126.63 1656.09 1120.85 1648.94 1113.24C1641.92 1105.57 1635.9 1096.6 1630.87 1086.32C1625.85 1076.04 1622.59 1065.72 1621.11 1055.34C1619.56 1044.83 1619.91 1034.87 1622.16 1025.44C1624.54 1015.95 1628.95 1007.26 1635.38 999.384C1641.88 991.307 1650.53 984.627 1661.33 979.344C1668.71 975.735 1676.18 973.309 1683.73 972.063C1691.29 970.818 1698.57 970.849 1705.57 972.157C1712.58 973.465 1719.21 976.18 1725.47 980.302C1731.67 984.292 1737.13 989.784 1741.86 996.779L1723.08 1005.96Z" fill="white"/>
<path d="M1761.03 937.754L1830.25 911.823C1844.26 906.575 1856.46 905.918 1866.87 909.853C1877.4 913.736 1884.91 921.652 1889.39 933.602C1892.73 942.529 1893.6 951.13 1892.01 959.403C1890.54 967.625 1885.81 974.644 1877.81 980.461L1877.96 980.873C1882.53 980.102 1886.48 980.189 1889.81 981.134C1893.28 982.028 1896.28 983.566 1898.82 985.747C1901.45 987.739 1903.72 990.254 1905.64 993.294C1907.7 996.281 1909.6 999.483 1911.35 1002.9C1912.97 1006.37 1914.54 1009.93 1916.06 1013.59C1917.59 1017.24 1919.3 1020.76 1921.18 1024.12C1923.07 1027.49 1925.11 1030.64 1927.31 1033.57C1929.59 1036.32 1932.22 1038.54 1935.21 1040.24L1913.37 1048.42C1911.43 1047.43 1909.7 1045.73 1908.17 1043.32C1906.78 1040.87 1905.43 1038.09 1904.11 1034.98C1902.73 1031.74 1901.29 1028.28 1899.76 1024.63C1898.23 1020.97 1896.46 1017.49 1894.43 1014.17C1892.55 1010.81 1890.6 1007.7 1888.59 1004.85C1886.53 1001.86 1884.17 999.534 1881.51 997.868C1878.8 996.065 1875.75 995.017 1872.35 994.724C1868.9 994.293 1864.77 994.979 1859.96 996.779L1812.16 1014.68L1835.7 1077.52L1816.13 1084.85L1761.03 937.754ZM1846.78 982.922C1851.31 981.224 1855.51 979.26 1859.38 977.03C1863.24 974.799 1866.32 972.157 1868.62 969.102C1871.01 965.859 1872.48 962.254 1873.03 958.289C1873.67 954.135 1872.98 949.38 1870.97 944.023C1868.2 936.607 1863.87 931.335 1858 928.209C1852.13 925.083 1844.6 925.243 1835.39 928.69L1786.77 946.904L1805.99 998.203L1846.78 982.922Z" fill="white"/>
<path d="M1968.99 963.244L2020.36 949.266L1975.87 885.45L1975.44 885.565L1968.99 963.244ZM1959.86 870.197L1982.15 864.132L2082.62 999.585L2060.33 1005.65L2031.35 964.515L1967.24 981.96L1962.68 1032.22L1942.09 1037.82L1959.86 870.197Z" fill="white"/>
<path d="M2072.15 842.114L2173.67 823.667L2176.81 840.984L2095.86 855.694L2104.79 904.829L2175.79 891.928L2178.93 909.245L2107.93 922.146L2120.8 992.927L2100.23 996.663L2072.15 842.114Z" fill="white"/>
<path d="M2252.61 832.072L2200.5 837.164L2198.79 819.648L2323.81 807.431L2325.53 824.948L2273.41 830.04L2286.98 968.859L2266.18 970.891L2252.61 832.072Z" fill="white"/>
<path d="M2358.49 805.938L2466.93 804.386L2467.19 821.984L2379.63 823.237L2380.35 873.172L2461.96 872.004L2462.21 889.602L2380.6 890.77L2381.38 945.105L2469.59 943.842L2469.84 961.44L2360.73 963.002L2358.49 805.938Z" fill="white"/>
<path d="M2522.01 946.397L2556.67 949.052C2559.01 949.231 2561.94 949.308 2565.47 949.285C2569.02 949.115 2572.81 948.523 2576.86 947.509C2580.92 946.349 2584.96 944.599 2588.96 942.257C2593.11 939.928 2596.89 936.613 2600.31 932.315C2603.73 928.017 2606.65 922.577 2609.06 915.996C2611.64 909.279 2613.29 901.095 2614.03 891.444C2614.75 882.084 2614.44 873.676 2613.1 866.218C2611.91 858.626 2609.4 852.108 2605.55 846.665C2601.86 841.087 2596.82 836.73 2590.44 833.593C2584.07 830.311 2576.06 828.3 2566.41 827.561L2531.31 824.873L2522.01 946.397ZM2511.82 805.729L2565.56 809.844C2589.69 811.692 2607.79 819.256 2619.87 832.537C2631.94 845.818 2637.02 865.035 2635.09 890.188C2634.08 903.349 2631.72 914.936 2628.02 924.949C2624.32 934.816 2619.13 943.023 2612.45 949.572C2605.78 955.975 2597.55 960.641 2587.77 963.569C2577.98 966.497 2566.58 967.462 2553.57 966.466L2499.83 962.35L2511.82 805.729Z" fill="white"/>
<path d="M2871.3 1019.98L2850.11 1014.97L2845.6 878.257L2845.17 878.156L2779.46 998.253L2758.26 993.238L2755.25 831.109L2776.01 836.022L2775.9 970.282L2776.33 970.384L2840.67 851.318L2862.72 856.535L2866.46 991.707L2866.89 991.809L2928.02 871.983L2948.36 876.795L2871.3 1019.98Z" fill="white"/>
<path d="M2972.74 887.426L2992.61 893.903L2943.93 1043.25L2924.06 1036.77L2972.74 887.426Z" fill="white"/>
<path d="M3077.14 942.806L3028.49 923.442L3035 907.089L3151.71 953.548L3145.2 969.9L3096.56 950.536L3044.97 1080.13L3025.55 1072.4L3077.14 942.806Z" fill="white"/>
<path d="M3185.49 968.725L3204.12 978.181L3173.57 1038.41L3247.34 1075.84L3277.89 1015.6L3296.53 1025.06L3225.47 1165.14L3206.83 1155.69L3239.38 1091.53L3165.61 1054.11L3133.06 1118.27L3114.42 1108.81L3185.49 968.725Z" fill="white"/>
<path d="M3408.92 1093.62L3426.13 1105.48L3346.95 1220.31L3415.42 1267.52L3405.43 1282.01L3319.76 1222.94L3408.92 1093.62Z" fill="white"/>
<path d="M3478.82 1239.52C3473.76 1245.62 3469.55 1252.32 3466.17 1259.61C3462.89 1266.79 3460.97 1274.16 3460.43 1281.71C3459.89 1289.26 3461.05 1296.7 3463.93 1304.04C3466.9 1311.26 3472.05 1317.91 3479.39 1323.99C3486.74 1330.08 3494.23 1333.91 3501.88 1335.48C3509.62 1336.94 3517.15 1336.7 3524.47 1334.77C3531.78 1332.83 3538.67 1329.58 3545.11 1325.02C3551.65 1320.34 3557.45 1314.96 3562.5 1308.86C3567.56 1302.76 3571.73 1296.12 3575.01 1288.94C3578.39 1281.64 3580.35 1274.22 3580.89 1266.67C3581.43 1259.12 3580.22 1251.73 3577.25 1244.51C3574.38 1237.17 3569.27 1230.47 3561.93 1224.38C3554.59 1218.3 3547.04 1214.53 3539.3 1213.07C3531.66 1211.49 3524.17 1211.67 3516.86 1213.61C3509.54 1215.55 3502.61 1218.85 3496.07 1223.53C3489.62 1228.09 3483.87 1233.42 3478.82 1239.52ZM3462.72 1226.19C3469.55 1217.94 3477.29 1211.02 3485.93 1205.42C3494.78 1199.79 3504.06 1196.06 3513.79 1194.21C3523.51 1192.36 3533.43 1192.68 3543.56 1195.17C3553.69 1197.66 3563.56 1202.88 3573.16 1210.83C3582.76 1218.78 3589.72 1227.51 3594.05 1237C3598.37 1246.49 3600.53 1256.18 3600.52 1266.08C3600.51 1275.97 3598.51 1285.74 3594.52 1295.39C3590.74 1305.01 3585.43 1313.95 3578.6 1322.19C3571.77 1330.44 3563.93 1337.37 3555.08 1342.99C3546.44 1348.59 3537.26 1352.32 3527.53 1354.17C3517.81 1356.02 3507.89 1355.7 3497.76 1353.21C3487.72 1350.61 3477.91 1345.33 3468.31 1337.38C3458.71 1329.42 3451.7 1320.76 3447.28 1311.38C3442.95 1301.89 3440.79 1292.2 3440.8 1282.3C3440.81 1272.41 3442.71 1262.64 3446.49 1253.02C3450.48 1243.37 3455.89 1234.43 3462.72 1226.19Z" fill="white"/>
<path d="M3588.25 1442.54L3571.45 1425.74L3643.46 1275.61L3659.32 1291.48L3594.78 1419.51L3595.09 1419.82L3723.43 1355.56L3738.83 1370.96L3588.25 1442.54Z" fill="white"/>
<path d="M3761.52 1396.74L3831.43 1479.67L3817.97 1491.01L3761.54 1424.06L3723.35 1456.25L3775.96 1518.66L3762.5 1530L3709.9 1467.6L3668.35 1502.62L3725.21 1570.07L3711.76 1581.41L3641.42 1497.98L3761.52 1396.74Z" fill="white"/>
<path d="M1399.56 3617.3L1458.64 3661.73C1470.59 3670.72 1477.71 3680.66 1479.98 3691.55C1482.37 3702.52 1479.73 3713.11 1472.06 3723.31C1466.33 3730.92 1459.55 3736.28 1451.71 3739.38C1443.99 3742.57 1435.53 3742.35 1426.33 3738.73L1426.06 3739.08C1429.17 3742.52 1431.21 3745.9 1432.21 3749.21C1433.32 3752.62 1433.64 3755.98 1433.16 3759.29C1432.89 3762.57 1431.99 3765.84 1430.46 3769.1C1429.05 3772.44 1427.38 3775.77 1425.44 3779.08C1423.38 3782.3 1421.22 3785.54 1418.95 3788.79C1416.69 3792.05 1414.65 3795.37 1412.83 3798.77C1411 3802.18 1409.44 3805.59 1408.15 3809.02C1407.06 3812.42 1406.6 3815.84 1406.77 3819.27L1388.13 3805.25C1387.93 3803.08 1388.43 3800.71 1389.64 3798.13C1390.96 3795.64 1392.58 3793 1394.49 3790.21C1396.49 3787.31 1398.62 3784.24 1400.88 3780.98C1403.14 3777.73 1405.13 3774.36 1406.83 3770.87C1408.66 3767.47 1410.23 3764.16 1411.56 3760.93C1412.97 3757.59 1413.66 3754.35 1413.64 3751.21C1413.7 3747.96 1412.94 3744.82 1411.36 3741.79C1409.87 3738.65 1407.07 3735.54 1402.97 3732.45L1362.18 3701.78L1321.85 3755.4L1305.14 3742.84L1399.56 3617.3ZM1407.57 3713.89C1411.44 3716.8 1415.35 3719.28 1419.31 3721.34C1423.27 3723.4 1427.15 3724.58 1430.96 3724.88C1434.98 3725.15 1438.81 3724.45 1442.45 3722.78C1446.3 3721.09 1449.94 3717.95 1453.37 3713.38C1458.14 3707.05 1460.26 3700.57 1459.74 3693.94C1459.22 3687.31 1455.03 3681.04 1447.18 3675.14L1405.68 3643.93L1372.76 3687.71L1407.57 3713.89Z" fill="white"/>
<path d="M1578.1 3860.72C1567.62 3877.86 1555.17 3887.96 1540.76 3891.01C1526.42 3893.93 1510.81 3890.23 1493.91 3879.91C1476.64 3869.35 1465.61 3857.02 1460.82 3842.92C1456.24 3828.77 1459.41 3812.75 1470.35 3794.86L1522.67 3709.26L1540.5 3720.16L1488.18 3805.76C1480.84 3817.77 1478.45 3828.86 1481.01 3839.01C1483.64 3849.05 1490.96 3857.74 1502.98 3865.08C1514.36 3872.04 1524.87 3874.25 1534.5 3871.71C1544.33 3869.13 1552.92 3861.83 1560.26 3849.82L1612.58 3764.22L1630.42 3775.12L1578.1 3860.72Z" fill="white"/>
<path d="M1741.37 3884.38C1744.1 3873.32 1743.05 3863.52 1738.21 3855C1733.5 3846.54 1726.19 3839.91 1716.29 3835.13C1707.83 3831.05 1699.8 3829.13 1692.2 3829.37C1684.72 3829.67 1677.7 3831.57 1671.12 3835.07C1664.74 3838.5 1658.97 3843.21 1653.8 3849.18C1648.64 3855.16 1644.27 3861.84 1640.7 3869.24C1636.81 3877.3 1634.03 3885.41 1632.38 3893.56C1630.78 3901.59 1630.59 3909.23 1631.81 3916.5C1633.22 3923.69 1636.2 3930.34 1640.74 3936.45C1645.29 3942.55 1651.79 3947.64 1660.24 3951.72C1666.45 3954.72 1672.41 3956.37 1678.12 3956.69C1684.03 3956.93 1689.56 3956.1 1694.72 3954.2C1700.07 3952.22 1704.94 3949.2 1709.35 3945.14C1713.75 3941.07 1717.56 3936.23 1720.76 3930.61L1739.58 3939.7C1729.12 3956.64 1716.29 3967.54 1701.07 3972.41C1685.85 3977.28 1669.2 3975.34 1651.1 3966.61C1640.14 3961.32 1631.46 3954.84 1625.05 3947.19C1618.71 3939.41 1614.43 3930.91 1612.2 3921.69C1609.97 3912.47 1609.64 3902.7 1611.2 3892.38C1612.9 3882.12 1616.23 3871.84 1621.21 3861.54C1626.18 3851.24 1632.29 3842.3 1639.53 3834.72C1646.84 3827.01 1654.89 3821.13 1663.69 3817.07C1672.62 3813.07 1682.17 3811.17 1692.34 3811.36C1702.71 3811.48 1713.3 3814.15 1724.14 3819.38C1731.53 3822.95 1738.05 3827.32 1743.7 3832.49C1749.35 3837.66 1753.82 3843.4 1757.13 3849.72C1760.43 3856.04 1762.39 3862.93 1763.02 3870.4C1763.71 3877.74 1762.77 3885.42 1760.19 3893.46L1741.37 3884.38Z" fill="white"/>
<path d="M1808.74 3863.47L1828.37 3870.65L1805.17 3934.08L1882.86 3962.5L1906.06 3899.07L1925.69 3906.25L1871.73 4053.77L1852.1 4046.59L1876.81 3979.03L1799.13 3950.61L1774.41 4018.17L1754.79 4011L1808.74 3863.47Z" fill="white"/>
<path d="M1967.15 3918.64L1987.25 3924.39L1944.04 4075.41L1923.95 4069.66L1967.15 3918.64Z" fill="white"/>
<path d="M2033.03 3938.18L2053.48 3942.52L2037.2 4019.13L2131.38 3959.07L2157.85 3964.69L2079.9 4012.91L2127.78 4118.89L2101.96 4113.41L2062.95 4023.92L2032.26 4042.37L2020.83 4096.17L2000.39 4091.83L2033.03 3938.18Z" fill="white"/>
<path d="M2196.4 4063.41L2249.26 4069.72L2231.95 3993.88L2231.51 3993.82L2196.4 4063.41ZM2222.83 3973.73L2245.77 3976.47L2288.1 4139.72L2265.16 4136.98L2253.73 4087.98L2187.76 4080.11L2164.68 4124.99L2143.49 4122.46L2222.83 3973.73Z" fill="white"/>
<path d="M2428.69 4056.25L2470.48 4055.43C2482.36 4055.19 2490.82 4052.97 2495.88 4048.76C2501.07 4044.41 2503.59 4038.05 2503.42 4029.69C2503.31 4024.12 2502.34 4019.74 2500.52 4016.55C2498.7 4013.35 2496.23 4010.91 2493.12 4009.21C2490 4007.51 2486.39 4006.48 2482.27 4006.12C2478.3 4005.62 2474.04 4005.41 2469.5 4005.5L2427.71 4006.32L2428.69 4056.25ZM2406.46 3989.14L2463.43 3988.01C2466.8 3987.95 2470.4 3987.95 2474.21 3988.02C2478.17 3987.94 2482.06 3988.08 2485.88 3988.45C2489.7 3988.67 2493.23 3989.11 2496.47 3989.78C2499.86 3990.45 2502.74 3991.49 2505.12 3992.91C2510.31 3995.89 2514.72 4000.06 2518.34 4005.41C2522.12 4010.76 2524.08 4017.4 2524.24 4025.32C2524.4 4033.68 2522.49 4040.98 2518.51 4047.22C2514.67 4053.31 2509.04 4057.89 2501.62 4060.97L2501.63 4061.41C2511.35 4063.27 2518.84 4067.53 2524.1 4074.17C2529.37 4080.82 2532.1 4088.98 2532.29 4098.65C2532.4 4104.37 2531.48 4109.97 2529.54 4115.43C2527.59 4120.9 2524.61 4125.8 2520.59 4130.13C2516.71 4134.32 2511.79 4137.79 2505.83 4140.54C2500.01 4143.15 2493.22 4144.53 2485.45 4144.69L2409.56 4146.19L2406.46 3989.14ZM2430.11 4128.18L2482.46 4127.14C2491.7 4126.96 2498.83 4124.33 2503.87 4119.24C2509.05 4114.15 2511.55 4107.21 2511.38 4098.41C2511.28 4093.27 2510.24 4089.04 2508.27 4085.71C2506.29 4082.37 2503.68 4079.78 2500.41 4077.94C2497.29 4075.95 2493.67 4074.63 2489.55 4073.97C2485.43 4073.17 2481.17 4072.82 2476.77 4072.91L2429.04 4073.85L2430.11 4128.18Z" fill="white"/>
<path d="M2600.49 4073.52L2653.4 4067.65L2619.3 3997.72L2618.86 3997.77L2600.49 4073.52ZM2605.84 3980.18L2628.8 3977.63L2707.14 4126.98L2684.18 4129.53L2661.9 4084.41L2595.87 4091.74L2583.6 4140.7L2562.39 4143.05L2605.84 3980.18Z" fill="white"/>
<path d="M2822.29 3992.95C2817.75 3982.5 2810.96 3975.37 2801.94 3971.54C2793.06 3967.67 2783.23 3966.85 2772.45 3969.07C2763.26 3970.97 2755.71 3974.32 2749.82 3979.13C2744.06 3983.9 2739.64 3989.68 2736.54 3996.46C2733.56 4003.06 2731.83 4010.31 2731.36 4018.19C2730.88 4026.08 2731.48 4034.04 2733.13 4042.08C2734.94 4050.85 2737.66 4058.97 2741.3 4066.46C2744.91 4073.8 2749.4 4079.99 2754.78 4085.02C2760.27 4089.88 2766.68 4093.35 2774 4095.44C2781.31 4097.53 2789.57 4097.62 2798.76 4095.73C2805.51 4094.34 2811.25 4092.03 2815.98 4088.81C2820.82 4085.42 2824.71 4081.4 2827.65 4076.75C2830.7 4071.93 2832.74 4066.57 2833.77 4060.67C2834.8 4054.76 2834.88 4048.61 2834.01 4042.2L2854.48 4037.98C2856.46 4057.79 2852.89 4074.25 2843.76 4087.36C2834.63 4100.47 2820.23 4109.05 2800.55 4113.11C2788.62 4115.56 2777.79 4115.7 2768.06 4113.51C2758.29 4111.18 2749.73 4107.03 2742.36 4101.06C2734.99 4095.09 2728.79 4087.53 2723.76 4078.38C2718.88 4069.2 2715.28 4059.01 2712.97 4047.81C2710.67 4036.6 2710.09 4025.79 2711.23 4015.37C2712.35 4004.81 2715.18 3995.24 2719.7 3986.68C2724.37 3978.08 2730.8 3970.76 2738.99 3964.73C2747.3 3958.53 2757.34 3954.22 2769.12 3951.79C2777.16 3950.13 2785 3949.64 2792.63 3950.32C2800.25 3950.99 2807.29 3952.84 2813.76 3955.85C2820.22 3958.86 2825.96 3963.14 2831 3968.69C2836.01 3974.1 2839.93 3980.78 2842.76 3988.73L2822.29 3992.95Z" fill="white"/>
<path d="M2864.2 3935.19L2884.15 3928.95L2904.3 3993.41L2983.25 3968.72L2963.1 3904.26L2983.04 3898.02L3029.93 4047.95L3009.98 4054.18L2988.51 3985.52L2909.56 4010.21L2931.03 4078.87L2911.08 4085.11L2864.2 3935.19Z" fill="white"/>
<path d="M3209.76 3974.71L3189.81 3983.46L3103.99 3876.94L3103.59 3877.12L3123.31 4012.59L3103.36 4021.33L3003.45 3893.61L3023 3885.05L3103.65 3992.38L3104.05 3992.21L3083.85 3858.38L3104.61 3849.29L3188.89 3955.04L3189.29 3954.86L3166.07 3822.36L3185.21 3813.98L3209.76 3974.71Z" fill="white"/>
<path d="M3269.28 3871.6L3315.51 3845.2L3256.46 3794.56L3256.07 3794.78L3269.28 3871.6ZM3237.14 3783.8L3257.2 3772.35L3388.38 3878.33L3368.32 3889.79L3329.97 3857.22L3272.27 3890.15L3280.44 3939.96L3261.9 3950.54L3237.14 3783.8Z" fill="white"/>
<path d="M3327.37 3731.87L3345.54 3719.09L3486.48 3775.72L3486.84 3775.47L3413.57 3671.26L3429.77 3659.88L3520.12 3788.37L3501.4 3801.53L3361.77 3745.61L3361.41 3745.86L3433.91 3848.98L3417.71 3860.37L3327.37 3731.87Z" fill="white"/>
<path d="M3463.6 3632.85L3479.8 3619.64L3579.07 3741.37L3562.88 3754.58L3463.6 3632.85Z" fill="white"/>
<path d="M1606.93 1959.3C1606.93 1961.63 1605.06 1963.03 1601.33 1963.5C1598.06 1963.97 1585.7 1964.67 1564.23 1965.6C1551.63 1966.07 1544.4 1968.63 1542.53 1973.3C1540.66 1976.1 1539.96 1991.03 1540.43 2018.1L1541.13 2099.3C1541.6 2153.43 1541.83 2224.13 1541.83 2311.4V2430.4C1541.83 2438.33 1540.2 2442.3 1536.93 2442.3C1531.8 2442.3 1497.73 2403.8 1434.73 2326.8C1372.2 2249.33 1303.36 2160.9 1228.23 2061.5V2113.3C1228.23 2131.03 1228.46 2146.43 1228.93 2159.5C1228.93 2172.57 1228.93 2180.5 1228.93 2183.3V2401C1228.93 2410.8 1231.96 2416.87 1238.03 2419.2C1247.83 2422.93 1259.26 2424.8 1272.33 2424.8C1287.73 2424.8 1296.36 2425.97 1298.23 2428.3C1298.7 2428.77 1298.93 2429.7 1298.93 2431.1C1298.93 2434.83 1295.43 2436.7 1288.43 2436.7C1284.23 2436.7 1280.73 2436.47 1277.93 2436C1249.93 2435.07 1232.43 2434.6 1225.43 2434.6C1209.1 2434.6 1187.63 2435.07 1161.03 2436C1147.96 2436.47 1142.36 2436.7 1144.23 2436.7C1137.23 2436.7 1133.73 2434.83 1133.73 2431.1C1133.73 2427.83 1144 2425.5 1164.53 2424.1C1188.33 2422.23 1202.1 2418.5 1205.83 2412.9C1208.16 2409.17 1209.33 2392.37 1209.33 2362.5V2074.8C1209.33 2045.4 1208.86 2027.67 1207.93 2021.6C1205.13 2001.07 1196.96 1986.13 1183.43 1976.8C1173.16 1969.8 1154.03 1965.83 1126.03 1964.9C1118.56 1964.43 1114.83 1962.33 1114.83 1958.6C1114.83 1954.4 1118.1 1952.3 1124.63 1952.3C1127.43 1952.3 1137.46 1952.77 1154.73 1953.7C1163.13 1954.17 1175.73 1954.4 1192.53 1954.4C1227.06 1954.4 1255.06 1953.93 1276.53 1953L1522.23 2268.7V1991.5C1522.23 1980.3 1520.36 1973.3 1516.63 1970.5C1512.9 1967.23 1504.96 1965.37 1492.83 1964.9L1462.73 1963.5C1457.13 1963.03 1454.33 1961.4 1454.33 1958.6C1454.33 1954.87 1458.53 1953 1466.93 1953H1482.33C1485.13 1953 1489.8 1952.77 1496.33 1952.3C1502.4 1952.3 1507.76 1952.3 1512.43 1952.3C1559.56 1952.3 1587.1 1952.53 1595.03 1953C1602.96 1953.47 1606.93 1955.57 1606.93 1959.3ZM2043.84 1958.6C2043.84 1962.33 2035.91 1964.43 2020.04 1964.9C2000.44 1965.37 1988.54 1968.63 1984.34 1974.7C1982.94 1976.57 1982.01 1980.53 1981.54 1986.6V2282.7C1981.54 2392.83 1928.81 2447.9 1823.34 2447.9C1769.21 2447.9 1727.21 2431.33 1697.34 2398.2C1674.94 2373.47 1663.74 2329.6 1663.74 2266.6V1997.8C1663.74 1982.87 1661.41 1973.77 1656.74 1970.5C1652.07 1967.23 1637.37 1964.67 1612.64 1962.8C1607.51 1962.33 1604.94 1960.47 1604.94 1957.2C1604.94 1953 1609.14 1950.9 1617.54 1950.9C1617.54 1950.9 1619.41 1950.9 1623.14 1950.9C1627.34 1951.37 1630.84 1951.6 1633.64 1951.6L1677.04 1952.3C1718.11 1952.77 1748.44 1952.77 1768.04 1952.3C1794.17 1951.83 1804.44 1951.6 1798.84 1951.6H1813.54C1821.47 1951.6 1825.44 1953.93 1825.44 1958.6C1825.44 1962.8 1818.21 1964.9 1803.74 1964.9C1783.21 1964.9 1772.24 1968.63 1770.84 1976.1C1769.91 1981.23 1769.44 1986.13 1769.44 1990.8V2252.6C1769.44 2290.4 1770.14 2314.43 1771.54 2324.7C1774.81 2355.03 1783.44 2376.97 1797.44 2390.5C1814.71 2407.3 1837.34 2415.7 1865.34 2415.7C1897.07 2415.7 1920.41 2405.43 1935.34 2384.9C1953.54 2360.17 1962.64 2315.83 1962.64 2251.9V2020.9C1962.64 2016.7 1962.87 2011.33 1963.34 2004.8C1963.34 1998.27 1963.34 1994.3 1963.34 1992.9C1963.34 1980.77 1959.84 1972.83 1952.84 1969.1C1948.17 1966.3 1939.07 1964.9 1925.54 1964.9C1908.74 1964.43 1900.34 1961.63 1900.34 1956.5C1900.34 1952.77 1903.61 1950.9 1910.14 1950.9C1917.14 1950.9 1927.41 1951.37 1940.94 1952.3C1954.47 1952.77 1964.74 1953 1971.74 1953C1972.21 1953 1976.17 1952.77 1983.64 1952.3C1991.57 1952.3 1998.81 1952.3 2005.34 1952.3H2022.14C2036.61 1952.3 2043.84 1954.4 2043.84 1958.6ZM2453.36 2081.8C2453.36 2085.53 2451.72 2087.4 2448.46 2087.4C2443.32 2087.4 2438.66 2078.3 2434.46 2060.1C2426.06 2024.17 2414.39 1999.67 2399.46 1986.6C2384.52 1973.53 2360.72 1967 2328.06 1967C2315.46 1967 2304.49 1967.47 2295.16 1968.4L2295.86 2394C2296.32 2405.67 2299.59 2413.13 2305.66 2416.4C2311.72 2419.67 2328.06 2422.47 2354.66 2424.8C2359.79 2425.27 2362.36 2427.37 2362.36 2431.1C2362.36 2435.77 2358.62 2438.1 2351.16 2438.1C2349.76 2438.1 2346.26 2437.87 2340.66 2437.4C2333.66 2436.93 2327.82 2436.7 2323.16 2436.7L2251.06 2434.6L2132.06 2436.7C2125.52 2436.7 2122.26 2434.83 2122.26 2431.1C2122.26 2428.3 2123.19 2426.67 2125.06 2426.2C2126.92 2425.73 2134.62 2425.27 2148.16 2424.8C2173.82 2423.87 2187.59 2417.8 2189.46 2406.6C2190.39 2400.53 2190.86 2353.17 2190.86 2264.5V1968.4C2185.72 1967.93 2179.66 1967.7 2172.66 1967.7C2135.32 1967.7 2108.02 1974.7 2090.76 1988.7C2073.96 2002.23 2062.99 2026.5 2057.86 2061.5C2054.59 2082.03 2050.39 2092.3 2045.26 2092.3C2041.06 2092.3 2038.96 2089.5 2038.96 2083.9C2038.96 2080.17 2039.89 2067.33 2041.76 2045.4C2045.49 1999.67 2047.82 1968.4 2048.76 1951.6H2059.26L2110.36 1950.9C2111.76 1950.9 2127.86 1951.37 2158.66 1952.3C2189.92 1953.23 2229.59 1953.7 2277.66 1953.7C2304.26 1953.7 2328.06 1953.47 2349.06 1953C2370.06 1952.53 2389.19 1952.3 2406.46 1952.3C2421.86 1952.3 2433.52 1951.83 2441.46 1950.9C2442.86 1981.23 2446.36 2019.97 2451.96 2067.1C2452.89 2075.03 2453.36 2079.93 2453.36 2081.8ZM2901.31 2408.7C2901.31 2434.83 2884.28 2447.9 2850.21 2447.9C2807.28 2447.9 2772.98 2434.37 2747.31 2407.3C2727.24 2386.3 2715.81 2363.9 2713.01 2340.1L2706.01 2282.7C2701.34 2246.3 2692.71 2220.87 2680.11 2206.4C2667.98 2191.93 2648.14 2184.93 2620.61 2185.4V2344.3C2620.61 2381.17 2620.84 2401 2621.31 2403.8C2621.31 2411.73 2624.58 2417.33 2631.11 2420.6C2637.64 2423.4 2650.01 2424.8 2668.21 2424.8C2679.41 2424.8 2685.01 2426.9 2685.01 2431.1C2685.01 2434.83 2682.21 2436.7 2676.61 2436.7L2608.71 2436C2608.71 2436 2604.98 2436 2597.51 2436C2589.11 2436.47 2581.18 2436.7 2573.71 2436.7H2523.31C2518.64 2436.7 2513.28 2436.47 2507.21 2436C2502.08 2436 2498.81 2436 2497.41 2436L2465.21 2436.7C2458.68 2436.7 2455.41 2434.83 2455.41 2431.1C2455.41 2426.9 2464.98 2424.33 2484.11 2423.4C2499.98 2422.47 2509.31 2418.73 2512.11 2412.2C2513.51 2408.93 2514.21 2399.13 2514.21 2382.8V2022.3C2514.21 1998.03 2513.74 1983.8 2512.81 1979.6C2511.88 1974.93 2508.84 1971.43 2503.71 1969.1C2497.18 1966.3 2486.68 1964.9 2472.21 1964.9C2461.94 1964.9 2456.81 1962.8 2456.81 1958.6C2456.81 1955.33 2458.91 1953.47 2463.11 1953C2467.31 1952.07 2478.51 1951.6 2496.71 1951.6C2496.71 1951.6 2500.91 1951.6 2509.31 1951.6C2517.71 1952.07 2525.88 1952.3 2533.81 1952.3H2556.91C2557.38 1952.3 2562.28 1952.07 2571.61 1951.6C2580.48 1951.6 2588.88 1951.6 2596.81 1951.6H2637.41C2702.74 1951.6 2747.31 1956.73 2771.11 1967C2789.78 1974.93 2804.71 1987.07 2815.91 2003.4C2827.11 2019.73 2832.71 2037.7 2832.71 2057.3C2832.71 2102.1 2809.38 2135.23 2762.71 2156.7C2742.18 2166.03 2711.84 2173.03 2671.71 2177.7L2671.01 2181.9C2721.88 2185.17 2758.74 2198.7 2781.61 2222.5C2804.48 2245.83 2818.24 2283.87 2822.91 2336.6C2826.64 2378.6 2832.48 2404.97 2840.41 2415.7C2848.34 2425.97 2856.51 2431.1 2864.91 2431.1C2871.91 2431.1 2875.41 2429.23 2875.41 2425.5C2875.41 2423.63 2872.61 2421.07 2867.01 2417.8C2861.88 2414.53 2859.31 2409.87 2859.31 2403.8C2859.31 2391.2 2866.31 2384.9 2880.31 2384.9C2894.31 2384.9 2901.31 2392.83 2901.31 2408.7ZM2724.21 2055.2C2724.21 1995 2700.41 1964.9 2652.81 1964.9C2637.41 1964.9 2627.84 1970.03 2624.11 1980.3C2621.78 1986.83 2620.61 2012.27 2620.61 2056.6V2172.8C2657.01 2173.27 2683.38 2164.17 2699.71 2145.5C2716.04 2126.83 2724.21 2096.73 2724.21 2055.2ZM3123.01 2431.1C3123.01 2434.83 3119.98 2436.7 3113.91 2436.7C3110.65 2436.7 3107.61 2436.47 3104.81 2436C3076.81 2434.6 3052.78 2433.9 3032.71 2433.9C3011.71 2433.9 2980.91 2434.6 2940.31 2436C2926.78 2436.47 2916.75 2436.7 2910.21 2436.7C2903.21 2436.7 2899.71 2434.6 2899.71 2430.4C2899.71 2428.07 2900.88 2426.67 2903.21 2426.2C2906.01 2425.73 2915.11 2425.27 2930.51 2424.8C2944.98 2422 2953.38 2417.8 2955.71 2412.2C2958.05 2406.13 2959.21 2387.23 2959.21 2355.5V2018.8C2959.21 2009.93 2959.21 2001.3 2959.21 1992.9C2958.75 1984.5 2958.51 1980.53 2958.51 1981C2958.51 1969.33 2946.85 1963.5 2923.51 1963.5C2910.45 1963.5 2903.91 1961.87 2903.91 1958.6C2903.91 1955.33 2904.85 1953.47 2906.71 1953C2908.58 1952.53 2914.65 1952.3 2924.91 1952.3C2920.25 1952.3 2928.65 1952.53 2950.11 1953C2971.58 1953.47 2990.01 1953.7 3005.41 1953.7H3041.11C3048.58 1953.7 3059.08 1953.47 3072.61 1953C3086.61 1952.07 3096.41 1951.6 3102.01 1951.6H3109.01C3115.08 1951.6 3118.11 1953.47 3118.11 1957.2C3118.11 1960 3116.95 1961.87 3114.61 1962.8C3112.75 1963.27 3105.75 1963.73 3093.61 1964.2C3079.15 1965.13 3070.28 1968.17 3067.01 1973.3L3064.91 1986.6V2382.1C3064.91 2402.17 3067.01 2414.07 3071.21 2417.8C3075.88 2421.53 3091.05 2424.1 3116.71 2425.5C3120.91 2425.97 3123.01 2427.83 3123.01 2431.1Z" fill="white"/>
<path d="M2251.04 2902.5C2251.04 2903.43 2250.8 2925.13 2250.34 2967.6C2249.87 2990 2249.4 3006.1 2248.94 3015.9C2248.94 3025.7 2248.94 3030.37 2248.94 3029.9C2125.74 3024.3 2017.94 3022.67 1925.54 3025L1866.74 3026.4C1858.34 3026.4 1854.14 3024.53 1854.14 3020.8C1854.14 3018 1855.07 3016.37 1856.94 3015.9C1859.27 3015.43 1866.5 3014.73 1878.64 3013.8C1900.57 3012.4 1912.47 3006.1 1914.34 2994.9C1915.27 2988.83 1915.74 2982.07 1915.74 2974.6V2619.7C1915.74 2591.7 1915.5 2576.3 1915.04 2573.5C1914.57 2566.03 1912.24 2560.9 1908.04 2558.1C1903.84 2555.3 1895.2 2553.9 1882.14 2553.9C1867.67 2553.9 1860.44 2551.8 1860.44 2547.6C1860.44 2542.93 1866.74 2540.6 1879.34 2540.6C1892.4 2540.6 1910.37 2540.37 1933.24 2539.9C2019.1 2538.03 2089.34 2537.57 2143.94 2538.5L2191.54 2539.2C2201.8 2539.2 2214.4 2538.27 2229.34 2536.4L2235.64 2612.7C2237.97 2636.97 2239.14 2651.9 2239.14 2657.5C2239.14 2662.17 2236.8 2664.5 2232.14 2664.5C2227.47 2664.5 2224.44 2658.43 2223.04 2646.3C2218.84 2614.1 2205.77 2590.77 2183.84 2576.3C2162.37 2561.37 2130.4 2553.9 2087.94 2553.9C2074.87 2553.9 2052.47 2554.6 2020.74 2556V2762.5C2072.07 2762.97 2104.27 2759.47 2117.34 2752C2130.87 2744.07 2139.97 2724 2144.64 2691.8C2146.97 2674.53 2150.47 2665.9 2155.14 2665.9C2159.34 2665.9 2161.44 2670.1 2161.44 2678.5C2161.44 2686.9 2160.74 2704.17 2159.34 2730.3C2158.87 2739.17 2158.64 2751.07 2158.64 2766C2158.64 2806.13 2159.1 2836.47 2160.04 2857C2160.5 2859.8 2160.74 2863.3 2160.74 2867.5C2160.74 2873.1 2158.64 2875.9 2154.44 2875.9C2151.17 2875.9 2149.07 2874.97 2148.14 2873.1C2147.2 2870.77 2145.8 2863.07 2143.94 2850C2139.27 2816.87 2132.74 2796.33 2124.34 2788.4C2116.4 2780 2097.74 2775.8 2068.34 2775.8H2020.74V3011.7L2065.54 3011C2116.87 3010.07 2148.14 3008.9 2159.34 3007.5C2173.34 3005.63 2186.87 3000.5 2199.94 2992.1C2211.6 2982.77 2219.54 2972.73 2223.74 2962C2228.4 2951.27 2233.3 2931.43 2238.44 2902.5C2239.84 2895.5 2242.17 2892 2245.44 2892C2249.17 2892 2251.04 2895.5 2251.04 2902.5ZM2922.15 2546.9C2922.15 2550.63 2918.65 2552.73 2911.65 2553.2C2890.65 2554.13 2877.35 2556.7 2871.75 2560.9C2866.15 2564.63 2859.85 2576.3 2852.85 2595.9C2848.65 2606.63 2842.35 2622.97 2833.95 2644.9C2827.88 2663.1 2818.31 2691.1 2805.25 2728.9C2798.71 2746.63 2788.91 2773.47 2775.85 2809.4L2741.55 2905.3C2717.28 2972.97 2703.75 3011.93 2700.95 3022.2C2699.08 3028.27 2696.98 3031.3 2694.65 3031.3C2691.85 3031.3 2689.51 3029.2 2687.65 3025C2685.78 3020.33 2680.41 3004.23 2671.55 2976.7C2659.88 2940.3 2642.85 2895.03 2620.45 2840.9L2596.65 2783.5C2549.98 2883.37 2516.38 2962.7 2495.85 3021.5C2493.51 3027.57 2490.95 3030.6 2488.15 3030.6C2486.28 3030.6 2480.45 3018.23 2470.65 2993.5L2385.25 2770.9C2364.71 2714.9 2338.35 2648.17 2306.15 2570.7C2302.88 2562.3 2297.51 2557.17 2290.05 2555.3C2285.85 2553.9 2277.68 2553.2 2265.55 2553.2C2253.41 2553.2 2247.35 2551.1 2247.35 2546.9C2247.35 2543.17 2250.61 2541.3 2257.15 2541.3C2256.68 2541.3 2264.38 2541.3 2280.25 2541.3C2296.58 2541.77 2310.58 2542 2322.25 2542H2348.85L2419.55 2540.6C2421.88 2540.6 2425.85 2540.37 2431.45 2539.9C2436.11 2539.9 2439.38 2539.9 2441.25 2539.9C2447.31 2539.9 2450.35 2542.23 2450.35 2546.9C2450.35 2551.1 2442.88 2552.97 2427.95 2552.5C2420.01 2552.5 2416.05 2554.6 2416.05 2558.8C2416.05 2560.67 2416.51 2562.77 2417.45 2565.1C2427.71 2593.57 2443.35 2636.03 2464.35 2692.5L2536.45 2878.7L2585.45 2766.7C2578.45 2746.17 2564.91 2709.3 2544.85 2656.1C2541.11 2647.7 2535.98 2634.87 2529.45 2617.6C2528.05 2613.4 2525.71 2606.87 2522.45 2598C2514.51 2576.53 2507.98 2563.7 2502.85 2559.5C2497.71 2554.83 2486.98 2552.5 2470.65 2552.5C2465.98 2552.03 2463.65 2549.93 2463.65 2546.2C2463.65 2542 2468.08 2539.9 2476.95 2539.9C2475.55 2539.9 2477.88 2540.13 2483.95 2540.6C2490.48 2541.07 2500.98 2541.3 2515.45 2541.3L2759.75 2540.6C2768.61 2540.13 2773.05 2542.23 2773.05 2546.9C2773.05 2550.63 2769.55 2552.5 2762.55 2552.5C2729.41 2552.03 2710.28 2557.63 2705.15 2569.3C2697.21 2581.9 2680.65 2617.6 2655.45 2676.4C2671.78 2718.4 2697.91 2784.9 2733.85 2875.9C2741.31 2856.77 2749.25 2835.53 2757.65 2812.2C2765.11 2792.6 2777.25 2759.23 2794.05 2712.1C2804.78 2680.83 2813.88 2655.4 2821.35 2635.8C2833.95 2602.67 2840.25 2581.2 2840.25 2571.4C2840.25 2562.07 2835.58 2556.23 2826.25 2553.9C2822.98 2552.97 2814.58 2552.5 2801.05 2552.5C2793.58 2552.5 2789.85 2550.63 2789.85 2546.9C2789.85 2543.17 2793.35 2541.3 2800.35 2541.3L2855.65 2542.7C2879.45 2543.17 2897.41 2542.7 2909.55 2541.3H2915.15C2919.81 2541.3 2922.15 2543.17 2922.15 2546.9ZM2682.05 2571.4C2682.05 2558.8 2670.85 2552.5 2648.45 2552.5C2625.58 2552.5 2614.15 2556.7 2614.15 2565.1C2614.15 2576.77 2625.35 2606.63 2647.75 2654.7C2670.61 2607.1 2682.05 2579.33 2682.05 2571.4ZM3296.94 2902.5C3296.94 2903.43 3296.7 2925.13 3296.24 2967.6C3295.77 2990 3295.3 3006.1 3294.84 3015.9C3294.84 3025.7 3294.84 3030.37 3294.84 3029.9C3171.64 3024.3 3063.84 3022.67 2971.44 3025L2912.64 3026.4C2904.24 3026.4 2900.04 3024.53 2900.04 3020.8C2900.04 3018 2900.97 3016.37 2902.84 3015.9C2905.17 3015.43 2912.4 3014.73 2924.54 3013.8C2946.47 3012.4 2958.37 3006.1 2960.24 2994.9C2961.17 2988.83 2961.64 2982.07 2961.64 2974.6V2619.7C2961.64 2591.7 2961.4 2576.3 2960.94 2573.5C2960.47 2566.03 2958.14 2560.9 2953.94 2558.1C2949.74 2555.3 2941.1 2553.9 2928.04 2553.9C2913.57 2553.9 2906.34 2551.8 2906.34 2547.6C2906.34 2542.93 2912.64 2540.6 2925.24 2540.6C2938.3 2540.6 2956.27 2540.37 2979.14 2539.9C3065 2538.03 3135.24 2537.57 3189.84 2538.5L3237.44 2539.2C3247.7 2539.2 3260.3 2538.27 3275.24 2536.4L3281.54 2612.7C3283.87 2636.97 3285.04 2651.9 3285.04 2657.5C3285.04 2662.17 3282.7 2664.5 3278.04 2664.5C3273.37 2664.5 3270.34 2658.43 3268.94 2646.3C3264.74 2614.1 3251.67 2590.77 3229.74 2576.3C3208.27 2561.37 3176.3 2553.9 3133.84 2553.9C3120.77 2553.9 3098.37 2554.6 3066.64 2556V2762.5C3117.97 2762.97 3150.17 2759.47 3163.24 2752C3176.77 2744.07 3185.87 2724 3190.54 2691.8C3192.87 2674.53 3196.37 2665.9 3201.04 2665.9C3205.24 2665.9 3207.34 2670.1 3207.34 2678.5C3207.34 2686.9 3206.64 2704.17 3205.24 2730.3C3204.77 2739.17 3204.54 2751.07 3204.54 2766C3204.54 2806.13 3205 2836.47 3205.94 2857C3206.4 2859.8 3206.64 2863.3 3206.64 2867.5C3206.64 2873.1 3204.54 2875.9 3200.34 2875.9C3197.07 2875.9 3194.97 2874.97 3194.04 2873.1C3193.1 2870.77 3191.7 2863.07 3189.84 2850C3185.17 2816.87 3178.64 2796.33 3170.24 2788.4C3162.3 2780 3143.64 2775.8 3114.24 2775.8H3066.64V3011.7L3111.44 3011C3162.77 3010.07 3194.04 3008.9 3205.24 3007.5C3219.24 3005.63 3232.77 3000.5 3245.84 2992.1C3257.5 2982.77 3265.44 2972.73 3269.64 2962C3274.3 2951.27 3279.2 2931.43 3284.34 2902.5C3285.74 2895.5 3288.07 2892 3291.34 2892C3295.07 2892 3296.94 2895.5 3296.94 2902.5ZM3703.44 2906.7C3703.44 2915.57 3703.21 2923.03 3702.74 2929.1C3700.88 2949.63 3700.18 2966.2 3700.64 2978.8L3701.34 3028.5C3641.61 3026.17 3533.58 3025 3377.24 3025H3347.84C3327.31 3025 3317.04 3023.13 3317.04 3019.4C3317.04 3015.67 3320.31 3013.8 3326.84 3013.8C3350.18 3013.33 3365.11 3010.07 3371.64 3004C3375.84 3000.27 3377.94 2989.07 3377.94 2970.4L3377.24 2591C3377.24 2575.13 3375.84 2565.33 3373.04 2561.6C3367.44 2554.6 3358.81 2551.33 3347.14 2551.8L3329.64 2552.5C3324.51 2552.5 3321.94 2550.63 3321.94 2546.9C3321.94 2543.17 3325.21 2541.3 3331.74 2541.3C3335.48 2541.3 3339.21 2541.53 3342.94 2542H3520.74C3523.08 2541.53 3525.64 2541.3 3528.44 2541.3C3533.11 2541.3 3535.44 2543.17 3535.44 2546.9C3535.44 2551.1 3529.38 2553.2 3517.24 2553.2C3499.98 2553.2 3489.71 2555.3 3486.44 2559.5C3483.64 2563.7 3482.24 2582.13 3482.24 2614.8V2781.4C3482.24 2815.47 3483.18 2891.77 3485.04 3010.3C3493.91 3010.77 3503.94 3011 3515.14 3011C3564.14 3011 3597.98 3009.13 3616.64 3005.4C3646.04 2999.33 3666.11 2984.4 3676.84 2960.6C3682.44 2948.47 3687.58 2929.1 3692.24 2902.5C3693.64 2895.03 3695.74 2891.3 3698.54 2891.3C3701.81 2891.3 3703.44 2896.43 3703.44 2906.7Z" fill="white"/>
<path d="M1589.91 3151.6C1609.51 3149.73 1625.61 3143.9 1638.21 3134.1C1651.28 3124.77 1661.08 3108.9 1667.61 3086.5C1674.61 3064.57 1678.11 3034.47 1678.11 2996.2V2612.6C1678.11 2594.87 1676.71 2582.03 1673.91 2574.1C1671.58 2566.17 1666.68 2560.8 1659.21 2558C1652.21 2555.2 1641.01 2553.33 1625.61 2552.4V2538.4C1648.94 2539.8 1684.18 2540.5 1731.31 2540.5C1779.38 2540.5 1816.24 2539.8 1841.91 2538.4V2552.4C1826.04 2553.33 1814.61 2555.2 1807.61 2558C1800.61 2560.8 1795.71 2566.17 1792.91 2574.1C1790.58 2582.03 1789.41 2594.87 1789.41 2612.6V2868.8V2911.5C1789.41 2977.3 1785.44 3023.97 1777.51 3051.5C1767.71 3085.57 1746.71 3113.1 1714.51 3134.1C1682.78 3155.1 1641.24 3165.6 1589.91 3165.6V3151.6Z" fill="white"/>
</svg>
